<svg width="12" height="8" viewBox="0 0 12 8" fill="none" xmlns="http://www.w3.org/2000/svg">
<path d="M1.02588 2.58578L5.31588 6.82578C5.40885 6.91951 5.51945 6.99391 5.64131 7.04467C5.76317 7.09544 5.89387 7.12158 6.02588 7.12158C6.1579 7.12158 6.2886 7.09544 6.41046 7.04467C6.53232 6.99391 6.64292 6.91951 6.73588 6.82578L10.9759 2.58578C11.0696 2.49282 11.144 2.38222 11.1948 2.26036C11.2455 2.1385 11.2717 2.0078 11.2717 1.87578C11.2717 1.74377 11.2455 1.61307 11.1948 1.49121C11.144 1.36935 11.0696 1.25875 10.9759 1.16578C10.7885 0.979533 10.5351 0.874991 10.2709 0.874991C10.0067 0.874991 9.75325 0.979533 9.56588 1.16578L6.02588 4.70578L2.48588 1.16578C2.29962 0.98104 2.04822 0.876889 1.78588 0.875784C1.65428 0.875023 1.52382 0.900248 1.40198 0.950012C1.28014 0.999777 1.16932 1.0731 1.07588 1.16578C0.978809 1.2554 0.900455 1.36337 0.845348 1.48344C0.790242 1.60352 0.759475 1.73332 0.754826 1.86536C0.750176 1.99739 0.771737 2.12904 0.818262 2.2527C0.864787 2.37635 0.935353 2.48956 1.02588 2.58578Z" fill="#F0EFED"/>
</svg>
