<svg width="19" height="19" viewBox="0 0 19 19" fill="none" xmlns="http://www.w3.org/2000/svg">
<path fill-rule="evenodd" clip-rule="evenodd" d="M9.16667 18.3333C4.10406 18.3333 0 14.2293 0 9.16667C0 4.10406 4.10406 0 9.16667 0C14.2293 0 18.3333 4.10406 18.3333 9.16667C18.3333 14.2293 14.2293 18.3333 9.16667 18.3333ZM9.16667 16.6667C13.3088 16.6667 16.6667 13.3088 16.6667 9.16667C16.6667 5.02453 13.3088 1.66667 9.16667 1.66667C5.02453 1.66667 1.66667 5.02453 1.66667 9.16667C1.66667 13.3088 5.02453 16.6667 9.16667 16.6667ZM13.3334 8.33317H10V4.1665H8.33337V9.99984H13.3334V8.33317Z" fill="#90604C"/>
</svg>
