<svg width="33" height="25" viewBox="0 0 33 25" fill="none" xmlns="http://www.w3.org/2000/svg">
<path fill-rule="evenodd" clip-rule="evenodd" d="M2.99983 3.72705V17.2271H0V21.7271C0 23.3839 1.34315 24.7271 3 24.7271H22.464L22.4998 24.7273H29.9998C31.6567 24.7273 32.9998 23.3841 32.9998 21.7273V8.22726C32.9998 6.57041 31.6567 5.22726 29.9998 5.22726H22.4998C20.843 5.22726 19.4998 6.57041 19.4998 8.22726V17.2271H5.99983V3.72705H26.9998V5.22705H29.9998V3.72705C29.9998 2.0702 28.6567 0.727051 26.9998 0.727051H5.99983C4.34298 0.727051 2.99983 2.0702 2.99983 3.72705ZM3 20.2271H19.4998V21.7271H3V20.2271ZM22.5 21.727V8.22704H30V21.727H22.5Z" fill="white"/>
</svg>
