<svg width="18" height="20" viewBox="0 0 18 20" fill="none" xmlns="http://www.w3.org/2000/svg">
<path fill-rule="evenodd" clip-rule="evenodd" d="M5.0001 4H3.0001V0H5.0001V4ZM5 20V10H6C7.10457 10 8 9.10457 8 8V7C8 5.89543 7.10457 5 6 5H2C0.89543 5 0 5.89543 0 7V8C0 9.10457 0.89543 10 2 10H3V20H5ZM15 20V15H16C17.1046 15 18 14.1046 18 13V12C18 10.8954 17.1046 10 16 10H12C10.8954 10 10 10.8954 10 12V13C10 14.1046 10.8954 15 12 15H13V20H15ZM13.0001 9H15.0001V0H13.0001V9ZM1.99988 7V8H5.99988V7H1.99988ZM11.9999 13V12H15.9999V13H11.9999Z" fill="white"/>
</svg>
