<svg width="20" height="19" viewBox="0 0 20 19" fill="none" xmlns="http://www.w3.org/2000/svg">
<path opacity="0.3" d="M4.86162 10.7692L12.6793 3.17379C12.763 3.09241 13.4331 2.44138 14.4941 2.08874C15.9738 1.62759 17.4815 2.00736 18.6821 3.17379C19.9106 4.34023 20.2736 5.77793 19.7989 7.21563C19.4639 8.24644 18.7659 8.95172 18.6821 9.0331L10.2781 17.1982C8.82628 18.6087 5.19666 20.4262 1.84624 17.1982C-1.47626 13.9701 0.422315 10.4166 1.84624 9.0331L10.8645 0.244138C11.1995 -0.0813793 11.73 -0.0813793 12.065 0.244138C12.4001 0.569655 12.4001 1.08506 12.065 1.41057L3.07473 10.1995C2.93513 10.308 0.115193 13.1563 3.07473 16.0317C5.95051 18.8257 8.77044 16.3301 9.07757 16.0317L17.4815 7.83954C17.4815 7.83954 17.9562 7.37839 18.1795 6.72736C18.4587 5.85931 18.2633 5.09977 17.4815 4.34023C15.8063 2.71264 14.187 4.06896 13.8798 4.34023L6.06219 11.9085C5.78299 12.1798 5.58754 12.6409 6.06219 13.1021C6.53683 13.5632 6.98355 13.3462 7.26275 13.1021L12.6793 7.83954C13.0143 7.54115 13.5727 7.54115 13.8798 7.83954C14.2149 8.16506 14.2149 8.70759 13.8798 9.0331L8.46332 14.2685C7.70948 14.9738 6.17387 15.5434 4.86162 14.2685C3.52145 12.9936 4.10778 11.4745 4.86162 10.7692Z" fill="#311E19"/>
</svg>
