<svg width="16" height="16" viewBox="0 0 16 16" fill="none" xmlns="http://www.w3.org/2000/svg">
<path fill-rule="evenodd" clip-rule="evenodd" d="M8 1.6C9.9149 1.6 11.5572 2.46296 12.6455 4H9.6V5.6H15.2V0H13.6V2.61628C12.2199 0.946009 10.2434 0 8 0C3.58172 0 0 3.58172 0 8H1.6C1.6 4.46538 4.46538 1.6 8 1.6ZM7.99993 14.4C6.08503 14.4 4.44276 13.537 3.35438 12H6.39993V10.4H0.799927V16H2.39993V13.3837C3.78001 15.054 5.75654 16 7.99993 16C12.4182 16 15.9999 12.4183 15.9999 8H14.3999C14.3999 11.5346 11.5345 14.4 7.99993 14.4Z" fill="#EEB256"/>
</svg>
