<svg width="25" height="32" viewBox="0 0 25 32" fill="none" xmlns="http://www.w3.org/2000/svg">
<path fill-rule="evenodd" clip-rule="evenodd" d="M12.5 31.5296L13.4135 30.7319C21.0954 24.0242 25 18.1673 25 13.019C25 5.7283 19.3096 0.519043 12.5 0.519043C5.69035 0.519043 0 5.7283 0 13.019C0 18.1673 3.90459 24.0242 11.5865 30.7319L12.5 31.5296ZM12.5002 27.8296C5.9816 21.9548 2.77797 16.9766 2.77797 13.0194C2.77797 7.32019 7.17258 3.29713 12.5002 3.29713C17.8278 3.29713 22.2224 7.32019 22.2224 13.0194C22.2224 16.9766 19.0188 21.9548 12.5002 27.8296ZM12.4998 6.07452C16.3351 6.07452 19.4443 9.18365 19.4443 13.019C19.4443 16.8543 16.3351 19.9634 12.4998 19.9634C8.6645 19.9634 5.55536 16.8543 5.55536 13.019C5.55536 9.18365 8.6645 6.07452 12.4998 6.07452ZM8.33333 13.019C8.33333 10.7179 10.1988 8.85238 12.5 8.85238C14.8012 8.85238 16.6667 10.7179 16.6667 13.019C16.6667 15.3202 14.8012 17.1857 12.5 17.1857C10.1988 17.1857 8.33333 15.3202 8.33333 13.019Z" fill="#311E19"/>
</svg>
