<svg width="18" height="18" viewBox="0 0 18 18" fill="none" xmlns="http://www.w3.org/2000/svg">
<path fill-rule="evenodd" clip-rule="evenodd" d="M8.04092 5.9169C8.4772 5.32896 8.63365 4.70932 8.14023 4.16236C7.03294 2.61297 6.28826 1.65482 5.82116 1.19341C4.93314 0.31619 3.47234 0.434847 2.70325 1.19266C2.29017 1.59968 2.15033 1.73946 1.72618 2.17027C-0.636386 4.5341 0.804427 9.53116 4.63463 13.3651C8.46397 17.1982 13.4606 18.6398 15.8281 16.271C16.2195 15.8937 16.5508 15.5621 16.8122 15.2859C17.5659 14.4893 17.6803 13.0929 16.8072 12.1857C16.3596 11.7206 15.446 11.0119 13.8314 9.85699C13.3369 9.41481 12.7505 9.51065 12.213 9.86331C11.9544 10.0329 11.7663 10.2046 11.4109 10.5602L10.7657 11.2058C10.6807 11.2908 9.52674 10.7129 8.40655 9.59165C7.28576 8.46975 6.70824 7.31572 6.79283 7.23114L7.43851 6.5851C7.55124 6.47226 7.60514 6.41763 7.67426 6.34498C7.81826 6.19364 7.93749 6.05629 8.04092 5.9169ZM11.9562 12.3971L12.6015 11.7514C12.7971 11.5556 12.9238 11.4353 13.0269 11.3523C14.4413 12.368 15.2604 13.0067 15.595 13.3543C15.7959 13.563 15.7647 13.9439 15.5901 14.1285C15.3484 14.3839 15.0344 14.6981 14.6491 15.0697C13.1182 16.6013 9.08482 15.4376 5.82535 12.1749C2.56485 8.91121 1.40173 4.87724 2.92109 3.35704C3.34353 2.928 3.47737 2.79423 3.88456 2.39301C4.03723 2.24258 4.4531 2.2088 4.63882 2.39226C4.99844 2.74751 5.66553 3.60167 6.64686 4.96864C6.59605 5.03171 6.5326 5.10298 6.45539 5.18414C6.39871 5.2437 6.3515 5.29156 6.24828 5.39488L5.60323 6.04028C4.50589 7.13754 5.44043 9.00502 7.21632 10.7827C8.991 12.5591 10.8592 13.4947 11.9562 12.3971Z" fill="#90604C"/>
</svg>
