<svg width="14" height="13" viewBox="0 0 14 13" fill="none" xmlns="http://www.w3.org/2000/svg">
<path fill-rule="evenodd" clip-rule="evenodd" d="M6.98558 0L6.87899 0.0061526L6.86459 0.00782418C6.28378 0.0752707 5.83333 0.568015 5.83333 1.16667V5.33333H1.65232L1.54568 5.33946L1.5312 5.34114C0.950473 5.40863 0.5 5.90136 0.5 6.5V6.51442L0.506153 6.62101L0.507824 6.63541C0.575271 7.21622 1.06801 7.66667 1.66667 7.66667H5.83333V11.8477L5.83946 11.9543L5.84114 11.9688C5.90863 12.5496 6.40137 13 7 13H7.01435L7.12097 12.9939L7.13545 12.9922C7.71623 12.9247 8.16667 12.432 8.16667 11.8333V7.66667H12.3477L12.4543 7.66054L12.4688 7.65886C13.0496 7.59137 13.5 7.09863 13.5 6.5V6.48565L13.4939 6.37903L13.4922 6.36455C13.4247 5.78377 12.932 5.33333 12.3333 5.33333H8.16667V1.15232L8.16054 1.04568L8.15886 1.0312C8.09137 0.450473 7.59864 0 7 0H6.98558Z" fill="#EEB256"/>
</svg>
