<svg width="46" height="38" viewBox="0 0 46 38" fill="none" xmlns="http://www.w3.org/2000/svg">
<path fill-rule="evenodd" clip-rule="evenodd" d="M8.41668 0.25V4.41667H4.25001V8.58333H0.0833435V4.41667C0.0833435 2.11548 1.77923 0.25 3.87122 0.25H8.41668ZM10.1212 6.5H35.8788C37.9708 6.5 39.6667 8.36548 39.6667 10.6667V27.3333C39.6667 29.6345 37.9708 31.5 35.8788 31.5H10.1212C8.02923 31.5 6.33334 29.6345 6.33334 27.3333V10.6667C6.33334 8.36548 8.02923 6.5 10.1212 6.5ZM10.5 19V27.3333H35.5V19H10.5ZM10.5 14.8334H35.5V10.6667H10.5V14.8334ZM37.5833 33.5833V37.75H42.1288C44.2208 37.75 45.9167 35.8845 45.9167 33.5833V29.4166H41.75V33.5833H37.5833ZM37.5833 0.25H42.1288C44.2208 0.25 45.9167 2.11548 45.9167 4.41667V8.58333H41.75V4.41667H37.5833V0.25ZM3.87122 37.75H8.41668V33.5833H4.25001V29.4166H0.0833435V33.5833C0.0833435 35.8845 1.77923 37.75 3.87122 37.75Z" fill="#90604C"/>
</svg>
