<svg width="42" height="42" viewBox="0 0 42 42" fill="none" xmlns="http://www.w3.org/2000/svg">
<path fill-rule="evenodd" clip-rule="evenodd" d="M7.45213 10.5833C6.76837 9.46533 6.41663 8.08924 6.41663 6.41663C6.41663 3.11889 8.89653 0.166626 12.6666 0.166626C16.4416 0.166626 19.4859 2.69502 21 6.65377C22.514 2.69502 25.5583 0.166626 29.3333 0.166626C33.1034 0.166626 35.5833 3.11889 35.5833 6.41663C35.5833 8.08924 35.2316 9.46533 34.5478 10.5833H37.6666C39.9678 10.5833 41.8333 12.4488 41.8333 14.75V18.9166C41.8333 21.2178 39.9678 23.0833 37.6666 23.0833V37.6666C37.6666 39.9678 35.8011 41.8333 33.5 41.8333H8.49996C6.19877 41.8333 4.33329 39.9678 4.33329 37.6666V23.0833C2.03211 23.0833 0.166626 21.2178 0.166626 18.9166V14.75C0.166626 12.4488 2.03211 10.5833 4.33329 10.5833H7.45213ZM18.9166 14.75H4.33325V18.9167H18.9166V14.75ZM37.6666 18.9167H23.0833V14.75H37.6666V18.9167ZM18.9167 37.6666V23.0833H8.5V37.6666H18.9167ZM33.4999 37.6666H23.0833V23.0833H33.4999V37.6666ZM12.6666 4.33325C11.3742 4.33325 10.5833 5.27484 10.5833 6.41658C10.5833 9.02748 12.702 10.2689 17.7279 10.5301C17.1693 6.64908 15.0878 4.33325 12.6666 4.33325ZM24.125 10.5301C24.6836 6.64908 26.7651 4.33325 29.1863 4.33325C30.4787 4.33325 31.2696 5.27484 31.2696 6.41658C31.2696 9.02748 29.1509 10.2689 24.125 10.5301Z" fill="#90604C"/>
</svg>
