<svg width="46" height="32" viewBox="0 0 46 32" fill="none" xmlns="http://www.w3.org/2000/svg">
<path fill-rule="evenodd" clip-rule="evenodd" d="M32.1291 4.58329L35.9673 12.2598L41.75 16.1149V23.3333H39.311C38.453 20.9058 36.1379 19.1666 33.4166 19.1666C30.6954 19.1666 28.3803 20.9058 27.5223 23.3333H18.4777C17.6197 20.9058 15.3046 19.1666 12.5833 19.1666C9.86202 19.1666 7.54694 20.9058 6.68895 23.3333H4.24998V4.58329H32.1291ZM41.75 27.5H39.311C38.453 29.9274 36.1379 31.6666 33.4166 31.6666C30.6954 31.6666 28.3803 29.9274 27.5223 27.5H18.4777C17.6197 29.9274 15.3046 31.6666 12.5833 31.6666C9.86203 31.6666 7.54695 29.9274 6.68895 27.5H4.24998C1.94879 27.5 0.083313 25.6345 0.083313 23.3333V4.58329C0.083313 2.28211 1.94879 0.416626 4.24998 0.416626H32.1291C33.7073 0.416626 35.1501 1.3083 35.8559 2.7199L39.1993 9.40675L45.9166 13.885V23.3333C45.9166 25.6345 44.0512 27.5 41.75 27.5ZM14.6666 25.4166C14.6666 26.5672 13.7339 27.5 12.5833 27.5C11.4327 27.5 10.5 26.5672 10.5 25.4166C10.5 24.266 11.4327 23.3333 12.5833 23.3333C13.7339 23.3333 14.6666 24.266 14.6666 25.4166ZM35.5 25.4166C35.5 26.5672 34.5672 27.4999 33.4166 27.4999C32.2661 27.4999 31.3333 26.5672 31.3333 25.4166C31.3333 24.266 32.2661 23.3333 33.4166 23.3333C34.5672 23.3333 35.5 24.266 35.5 25.4166Z" fill="#90604C"/>
</svg>
