<svg width="42" height="42" viewBox="0 0 42 42" fill="none" xmlns="http://www.w3.org/2000/svg">
<path fill-rule="evenodd" clip-rule="evenodd" d="M4.33335 14.7499H8.49951C8.5001 15.5135 8.9221 16.2486 9.65161 16.6133C10.6807 17.1279 11.9321 16.7107 12.4467 15.6816L12.9125 14.7499H29.0874L29.5533 15.6816C30.0678 16.7107 31.3192 17.1279 32.3484 16.6133C33.0779 16.2486 33.4999 15.5135 33.5005 14.7499H37.6667V18.9166H4.33335V14.7499ZM31.6626 10.5833H37.6667C39.9679 10.5833 41.8334 12.4487 41.8334 14.7499V18.9166C41.8334 20.6666 40.7545 22.1647 39.2255 22.7819C39.2326 22.8814 39.2363 22.9819 39.2363 23.0833C39.2363 23.3873 39.203 23.6904 39.1371 23.9871L35.8963 38.5705C35.4727 40.4769 33.7818 41.8333 31.8289 41.8333H10.1712C8.21833 41.8333 6.52744 40.4769 6.1038 38.5705L2.86305 23.9871C2.77285 23.5812 2.7452 23.176 2.77367 22.7815C1.24519 22.1641 0.166687 20.6663 0.166687 18.9166V14.7499C0.166687 12.4487 2.03217 10.5833 4.33335 10.5833H10.3374L14.9699 1.31823C15.4845 0.289111 16.7359 -0.128024 17.765 0.386537C18.7941 0.901098 19.2113 2.1525 18.6967 3.18162L14.9959 10.5833H27.0041L23.3033 3.18162C22.7887 2.1525 23.2059 0.901098 24.235 0.386537C25.2641 -0.128024 26.5155 0.289111 27.0301 1.31823L31.6626 10.5833ZM6.9305 23.0833H35.0696L31.8289 37.6666H10.1712L6.9305 23.0833Z" fill="#90604C"/>
</svg>
