<svg width="44" height="44" viewBox="0 0 44 44" fill="none" xmlns="http://www.w3.org/2000/svg">
<path fill-rule="evenodd" clip-rule="evenodd" d="M13.0586 5.08089V2.24927C13.0176 1.82521 13.2227 0.985297 14.3711 1.01813C15.4805 0.986409 19.7668 1.00321 21.9795 1.01672C24.1922 1.00321 28.4785 0.986409 29.5879 1.01813C30.7363 0.985297 30.9414 1.82521 30.9004 2.24927V5.08089C30.9004 5.60618 30.6269 6.01109 30.4902 6.14788L28.3574 8.32289V14.93H29.3828C30.0624 14.93 30.6133 15.4812 30.6133 16.1611V23.6301C30.6133 24.31 30.0624 24.8612 29.3828 24.8612H28.0966L23.2305 31.1684V33.7254C23.2305 34.4054 22.6796 34.9566 22 34.9566C21.3204 34.9566 20.7695 34.4054 20.7695 33.7254V31.2977L15.8036 24.8612H14.6172C13.9376 24.8612 13.3867 24.31 13.3867 23.6301V16.1611C13.3867 15.4812 13.9376 14.93 14.6172 14.93H15.6016V8.32289L13.4688 6.14788C13.332 6.01109 13.0586 5.60618 13.0586 5.08089ZM21.9501 28.5166L24.7704 24.8612H19.1299L21.9501 28.5166ZM15.6016 3.43937H21.7539H22.2051H28.3574V4.71155L26.7578 6.35307H22.2051H21.7539H17.2012L15.6016 4.71155V3.43937ZM18.1035 8.81535H21.7539H22.2051H25.8555V14.93H18.1035V8.81535ZM15.8477 17.3923V22.3989H18.3086V17.3923H15.8477ZM20.7695 17.3923V22.3989H23.2305V17.3923H20.7695ZM28.1523 22.3989H25.6914V17.3923H28.1523V22.3989ZM4.09822 28.979C4.4955 28.4273 5.2645 28.3023 5.81586 28.6998L7.68749 30.0491C8.23884 30.4466 8.36375 31.216 7.96648 31.7677C7.56921 32.3193 6.8002 32.4443 6.24884 32.0468L4.37722 30.6975C3.82586 30.3 3.70095 29.5306 4.09822 28.979ZM1 41.7689C1 41.0889 1.5509 40.5377 2.23047 40.5377H17.9993L10.6116 35.2117C10.0602 34.8142 9.93533 34.0448 10.3326 33.4931C10.7299 32.9415 11.4989 32.8165 12.0502 33.214L21.9865 40.3773L31.9227 33.214C32.474 32.8165 33.243 32.9415 33.6403 33.4931C34.0376 34.0448 33.9127 34.8142 33.3613 35.2117L25.9736 40.5377H41.7695C42.4491 40.5377 43 41.0889 43 41.7689C43 42.4488 42.4491 43 41.7695 43H2.23047C1.5509 43 1 42.4488 1 41.7689ZM37.5732 29.2743C38.1245 28.8768 38.8935 29.0018 39.2908 29.5535C39.6881 30.1051 39.5632 30.8746 39.0118 31.2721L37.808 32.1399C37.2567 32.5374 36.4877 32.4124 36.0904 31.8607C35.6931 31.3091 35.8181 30.5396 36.3694 30.1422L37.5732 29.2743Z" fill="#90604C" stroke="#90604C" stroke-width="1.5"/>
<mask id="mask0_3363_35989" style="mask-type:alpha" maskUnits="userSpaceOnUse" x="0" y="0" width="44" height="44">
<path fill-rule="evenodd" clip-rule="evenodd" d="M13.0586 5.08089V2.24927C13.0176 1.82521 13.2227 0.985297 14.3711 1.01813C15.4805 0.986409 19.7668 1.00321 21.9795 1.01672C24.1922 1.00321 28.4785 0.986409 29.5879 1.01813C30.7363 0.985297 30.9414 1.82521 30.9004 2.24927V5.08089C30.9004 5.60618 30.6269 6.01109 30.4902 6.14788L28.3574 8.32289V14.93H29.3828C30.0624 14.93 30.6133 15.4812 30.6133 16.1611V23.6301C30.6133 24.31 30.0624 24.8612 29.3828 24.8612H28.0966L23.2305 31.1684V33.7254C23.2305 34.4054 22.6796 34.9566 22 34.9566C21.3204 34.9566 20.7695 34.4054 20.7695 33.7254V31.2977L15.8036 24.8612H14.6172C13.9376 24.8612 13.3867 24.31 13.3867 23.6301V16.1611C13.3867 15.4812 13.9376 14.93 14.6172 14.93H15.6016V8.32289L13.4688 6.14788C13.332 6.01109 13.0586 5.60618 13.0586 5.08089ZM21.9501 28.5166L24.7704 24.8612H19.1299L21.9501 28.5166ZM15.6016 3.43937H21.7539H22.2051H28.3574V4.71155L26.7578 6.35307H22.2051H21.7539H17.2012L15.6016 4.71155V3.43937ZM18.1035 8.81535H21.7539H22.2051H25.8555V14.93H18.1035V8.81535ZM15.8477 17.3923V22.3989H18.3086V17.3923H15.8477ZM20.7695 17.3923V22.3989H23.2305V17.3923H20.7695ZM28.1523 22.3989H25.6914V17.3923H28.1523V22.3989ZM4.09822 28.979C4.4955 28.4273 5.2645 28.3023 5.81586 28.6998L7.68749 30.0491C8.23884 30.4466 8.36375 31.216 7.96648 31.7677C7.56921 32.3193 6.8002 32.4443 6.24884 32.0468L4.37722 30.6975C3.82586 30.3 3.70095 29.5306 4.09822 28.979ZM1 41.7689C1 41.0889 1.5509 40.5377 2.23047 40.5377H17.9993L10.6116 35.2117C10.0602 34.8142 9.93533 34.0448 10.3326 33.4931C10.7299 32.9415 11.4989 32.8165 12.0502 33.214L21.9865 40.3773L31.9227 33.214C32.474 32.8165 33.243 32.9415 33.6403 33.4931C34.0376 34.0448 33.9127 34.8142 33.3613 35.2117L25.9736 40.5377H41.7695C42.4491 40.5377 43 41.0889 43 41.7689C43 42.4488 42.4491 43 41.7695 43H2.23047C1.5509 43 1 42.4488 1 41.7689ZM37.5732 29.2743C38.1245 28.8768 38.8935 29.0018 39.2908 29.5535C39.6881 30.1051 39.5632 30.8746 39.0118 31.2721L37.808 32.1399C37.2567 32.5374 36.4877 32.4124 36.0904 31.8607C35.6931 31.3091 35.8181 30.5396 36.3694 30.1422L37.5732 29.2743Z" fill="#90604C" stroke="#90604C" stroke-width="2"/>
</mask>
<g mask="url(#mask0_3363_35989)">
<path d="M7.30005 23.05L8.35005 -0.0499516C15.7 -2.84995 30.82 -8.44995 32.5 -8.44995C34.6 -8.44995 36.7 -3.19995 37.75 -2.14995C38.59 -1.30995 41.6 12.9 43 19.9L30.4 30.4L22 37.75L19.9 36.7L15.7 33.55L7.30005 23.05Z" fill="#90604C"/>
</g>
<path d="M28.3 4.78704V3.41504H15.7V4.72171L17.2548 6.35504H26.7129L28.3 4.78704Z" fill="white"/>
<rect x="15.9099" y="17.3801" width="2.478" height="4.998" fill="white"/>
<rect x="20.74" y="17.3801" width="2.478" height="4.998" fill="white"/>
<rect x="25.675" y="17.3801" width="2.478" height="4.998" fill="white"/>
<path d="M21.9474 28.51L24.9027 24.8875H18.9921L21.9474 28.51Z" fill="white"/>
</svg>
