<svg width="42" height="42" viewBox="0 0 42 42" fill="none" xmlns="http://www.w3.org/2000/svg">
<path fill-rule="evenodd" clip-rule="evenodd" d="M40.1827 10.0689C42.3835 11.2916 42.3835 14.0417 40.1827 15.2643L37.3586 16.8333L40.1827 18.4023C42.3835 19.6249 42.3835 22.3751 40.1827 23.5977L37.3586 25.1667L40.1827 26.7356C42.3835 27.9583 42.3835 30.7084 40.1827 31.931L23.4095 41.2495C22.0083 42.0279 19.9916 42.0279 18.5904 41.2495L1.81718 31.931C-0.383558 30.7084 -0.383558 27.9583 1.81718 26.7356L4.64132 25.1667L1.81718 23.5977C-0.383558 22.3751 -0.383558 19.6249 1.81718 18.4023L4.64136 16.8333L1.81718 15.2643C-0.383558 14.0417 -0.383558 11.2916 1.81718 10.0689L18.5904 0.750452C19.9916 -0.0279825 22.0083 -0.0279825 23.4095 0.750452L40.1827 10.0689ZM23.4095 24.5828L33.0687 19.2166L36.2789 21L33.0688 22.7834L28.7789 25.1667L21.386 29.2739C21.2432 29.3532 20.7567 29.3532 20.6139 29.2739L13.221 25.1667L8.93116 22.7834L5.72101 21L8.9312 19.2166L18.5904 24.5828C19.9916 25.3612 22.0083 25.3612 23.4095 24.5828ZM8.93116 27.5499L5.72101 29.3333L20.6139 37.6072C20.7567 37.6865 21.2432 37.6865 21.386 37.6072L36.2789 29.3333L33.0688 27.5499L23.4095 32.9162C22.0083 33.6946 19.9916 33.6946 18.5904 32.9162L8.93116 27.5499ZM20.614 4.39273C20.7568 4.31343 21.2433 4.31343 21.386 4.39273L36.279 12.6666L21.386 20.9404C21.2433 21.0197 20.7568 21.0197 20.614 20.9404L5.72107 12.6666L20.614 4.39273Z" fill="#90604C"/>
</svg>
