<svg width="46" height="46" viewBox="0 0 46 46" fill="none" xmlns="http://www.w3.org/2000/svg">
<path fill-rule="evenodd" clip-rule="evenodd" d="M22.9167 45.8333C10.2601 45.8333 0 35.5732 0 22.9167C0 10.2601 10.2601 0 22.9167 0H23.7796L45.8333 22.0537V22.9167C45.8333 35.5732 35.5732 45.8333 22.9167 45.8333ZM4.16667 22.9166C4.16667 33.2719 12.5613 41.6666 22.9167 41.6666C31.8884 41.6666 39.3884 35.3654 41.2324 26.9471C39.7295 27.3418 38.1666 27.5462 36.5741 27.5462C26.4745 27.5462 18.2871 19.3589 18.2871 9.2592C18.2871 7.66668 18.4915 6.10375 18.8862 4.60085C10.4679 6.44487 4.16667 13.9449 4.16667 22.9166ZM23.0549 5.16783C22.6595 6.47731 22.4538 7.85224 22.4538 9.2592C22.4538 17.0577 28.7757 23.3796 36.5741 23.3796C37.9811 23.3796 39.356 23.1739 40.6655 22.7784L23.0549 5.16783Z" fill="#90604C"/>
</svg>
