<svg width="39" height="39" viewBox="0 0 39 39" fill="none" xmlns="http://www.w3.org/2000/svg">
<path fill-rule="evenodd" clip-rule="evenodd" d="M19.5 39C8.73045 39 0 30.2696 0 19.5C0 8.73045 8.73045 0 19.5 0C30.2696 0 39 8.73045 39 19.5C39 30.2696 30.2696 39 19.5 39ZM19.5 35.4545C28.3115 35.4545 35.4545 28.3115 35.4545 19.5C35.4545 10.6885 28.3115 3.54545 19.5 3.54545C10.6885 3.54545 3.54545 10.6885 3.54545 19.5C3.54545 28.3115 10.6885 35.4545 19.5 35.4545ZM21.2727 24.8182C21.2727 27.7553 23.6538 30.1364 26.5909 30.1364C29.5281 30.1364 31.9091 27.7553 31.9091 24.8182C31.9091 21.881 29.5281 19.5 26.5909 19.5C23.6538 19.5 21.2727 21.881 21.2727 24.8182ZM26.5909 26.5909C27.57 26.5909 28.3636 25.7972 28.3636 24.8182C28.3636 23.8391 27.57 23.0455 26.5909 23.0455C25.6119 23.0455 24.8182 23.8391 24.8182 24.8182C24.8182 25.7972 25.6119 26.5909 26.5909 26.5909ZM7.09091 14.1818C7.09091 17.119 9.47194 19.5 12.4091 19.5C15.3462 19.5 17.7273 17.119 17.7273 14.1818C17.7273 11.2447 15.3462 8.86364 12.4091 8.86364C9.47194 8.86364 7.09091 11.2447 7.09091 14.1818ZM12.4091 15.9545C13.3881 15.9545 14.1818 15.1609 14.1818 14.1818C14.1818 13.2028 13.3881 12.4091 12.4091 12.4091C11.43 12.4091 10.6364 13.2028 10.6364 14.1818C10.6364 15.1609 11.43 15.9545 12.4091 15.9545ZM16.1635 30.1364L26.7999 8.86365H22.8359L12.1996 30.1364H16.1635Z" fill="#90604C"/>
</svg>
