<svg width="39" height="39" viewBox="0 0 39 39" fill="none" xmlns="http://www.w3.org/2000/svg">
<path fill-rule="evenodd" clip-rule="evenodd" d="M19.5 39C8.73045 39 0 30.2695 0 19.5C0 8.73045 8.73045 0 19.5 0C30.2696 0 39 8.73045 39 19.5C39 30.2695 30.2696 39 19.5 39ZM19.5 35.4545C28.3115 35.4545 35.4545 28.3114 35.4545 19.5C35.4545 10.6886 28.3115 3.54546 19.5 3.54546C10.6885 3.54546 3.54545 10.6886 3.54545 19.5C3.54545 28.3114 10.6885 35.4545 19.5 35.4545ZM28.2049 25.6131L25.3049 23.5735C23.9836 25.4522 21.8389 26.591 19.4998 26.591C17.1607 26.591 15.0161 25.4522 13.6948 23.5735L10.7947 25.6131C12.7731 28.4261 15.9942 30.1364 19.4998 30.1364C23.0055 30.1364 26.2265 28.4261 28.2049 25.6131ZM23.0455 17.7273V14.1818H26.5909V17.7273H23.0455ZM12.4091 14.1818V17.7273H15.9546V14.1818H12.4091Z" fill="#90604C"/>
</svg>
