<svg width="39" height="39" viewBox="0 0 39 39" fill="none" xmlns="http://www.w3.org/2000/svg">
<path fill-rule="evenodd" clip-rule="evenodd" d="M6.81923 9.75C6.17923 8.70358 5.85 7.41557 5.85 5.85001C5.85 2.76332 8.17119 0 11.7 0C15.2334 0 18.0829 2.36658 19.5 6.07196C20.9171 2.36658 23.7666 0 27.3 0C30.8288 0 33.15 2.76332 33.15 5.85001C33.15 7.41557 32.8208 8.70358 32.1808 9.75H35.1C37.2539 9.75 39 11.4961 39 13.65V17.55C39 19.7039 37.2539 21.45 35.1 21.45V35.1C35.1 37.2539 33.3539 39 31.2 39H7.8C5.64609 39 3.9 37.2539 3.9 35.1V21.45C1.74609 21.45 0 19.7039 0 17.55V13.65C0 11.4961 1.74609 9.75 3.9 9.75H6.81923ZM17.55 13.65H3.90002V17.55H17.55V13.65ZM35.0999 17.55H21.45V13.65H35.0999V17.55ZM17.55 35.1V21.45H7.80005V35.1H17.55ZM31.2 35.1H21.45V21.45H31.2V35.1ZM11.7 3.89999C10.4903 3.89999 9.75 4.78133 9.75 5.84999C9.75 8.29379 11.7332 9.45578 16.4374 9.70024C15.9145 6.06761 13.9662 3.89999 11.7 3.89999ZM22.425 9.70024C22.9479 6.06761 24.8962 3.89999 27.1624 3.89999C28.3721 3.89999 29.1124 4.78133 29.1124 5.84999C29.1124 8.29379 27.1293 9.45578 22.425 9.70024Z" fill="#90604C"/>
</svg>
