<svg width="39" height="39" viewBox="0 0 39 39" fill="none" xmlns="http://www.w3.org/2000/svg">
<path fill-rule="evenodd" clip-rule="evenodd" d="M37.4551 9.26856C39.515 10.4129 39.515 12.9871 37.4551 14.1315L34.8118 15.5999L37.4551 17.0684C39.515 18.2128 39.515 20.7869 37.4551 21.9313L34.8117 23.3998L37.4551 24.8684C39.515 26.0128 39.515 28.5869 37.4551 29.7313L21.7553 38.4534C20.4438 39.182 18.5562 39.182 17.2447 38.4534L1.54492 29.7313C-0.514973 28.5869 -0.514973 26.0128 1.54492 24.8684L4.18831 23.3998L1.54492 21.9313C-0.514973 20.7869 -0.514973 18.2128 1.54492 17.0684L4.18816 15.5999L1.54492 14.1315C-0.514973 12.9871 -0.514973 10.4129 1.54492 9.26856L17.2447 0.546467C18.5562 -0.182156 20.4438 -0.182156 21.7553 0.546467L37.4551 9.26856ZM21.7553 22.8535L30.7965 17.8306L33.8011 19.4998L30.7964 21.1691L26.7811 23.3998L19.8613 27.2442C19.7277 27.3184 19.2723 27.3184 19.1387 27.2442L12.2189 23.3998L8.20361 21.1691L5.1989 19.4998L8.20346 17.8306L17.2447 22.8535C18.5562 23.5822 20.4438 23.5822 21.7553 22.8535ZM8.20361 25.6306L5.1989 27.2998L19.1387 35.0442C19.2723 35.1184 19.7277 35.1184 19.8613 35.0442L33.8011 27.2998L30.7964 25.6306L21.7553 30.6534C20.4438 31.382 18.5562 31.382 17.2447 30.6534L8.20361 25.6306ZM19.1385 3.95571C19.2721 3.88147 19.7275 3.88147 19.8611 3.95571L33.8009 11.7L19.8611 19.4444C19.7275 19.5186 19.2721 19.5186 19.1385 19.4444L5.19873 11.7L19.1385 3.95571Z" fill="#90604C"/>
</svg>
