<svg width="39" height="36" viewBox="0 0 39 36" fill="none" xmlns="http://www.w3.org/2000/svg">
<path fill-rule="evenodd" clip-rule="evenodd" d="M15.6 0H23.4C25.5539 0 27.3 1.74609 27.3 3.89999V5.85001H35.1C37.2539 5.85001 39 7.59608 39 9.75V31.2C39 33.3539 37.2539 35.1 35.1 35.1H3.9C1.74609 35.1 0 33.3539 0 31.2V9.75C0 7.59608 1.74609 5.85001 3.9 5.85001H11.7V3.89999C11.7 1.74609 13.4461 0 15.6 0ZM3.9 9.75H11.7H27.3H35.1V19.5H21.45H17.55H3.9V9.75ZM3.9 31.2V23.4H17.55V25.35H21.45V23.4H35.1V31.2H3.9ZM23.4 3.89999V5.84999H15.6V3.89999H23.4Z" fill="#90604C"/>
</svg>
