<svg width="39" height="39" viewBox="0 0 39 39" fill="none" xmlns="http://www.w3.org/2000/svg">
<path fill-rule="evenodd" clip-rule="evenodd" d="M5.71142 33.2886C4.07304 31.6502 3.60301 29.1511 4.11682 25.8719C1.4348 23.9165 0 21.817 0 19.5C0 17.183 1.4348 15.0835 4.11682 13.1281C3.60301 9.84894 4.07304 7.34979 5.71142 5.71141C7.34979 4.07304 9.84895 3.60301 13.1281 4.11682C15.0835 1.4348 17.183 0 19.5 0C21.817 0 23.9165 1.4348 25.8719 4.11682C29.1511 3.60301 31.6502 4.07304 33.2886 5.71141C34.927 7.34979 35.397 9.84894 34.8832 13.1281C37.5652 15.0835 39 17.183 39 19.5C39 21.817 37.5652 23.9165 34.8832 25.8719C35.397 29.1511 34.927 31.6502 33.2886 33.2886C31.6502 34.927 29.1511 35.397 25.8719 34.8832C23.9165 37.5652 21.817 39 19.5 39C17.183 39 15.0835 37.5652 13.1281 34.8832C9.84895 35.397 7.34979 34.927 5.71142 33.2886ZM13.5659 31.1964C14.2855 31.0423 15.0255 31.3488 15.4254 31.9666C16.9867 34.379 18.379 35.4545 19.5 35.4545C20.621 35.4545 22.0133 34.379 23.5746 31.9666C23.9745 31.3488 24.7145 31.0423 25.4341 31.1964C28.2439 31.7982 29.9889 31.5742 30.7816 30.7816C31.5742 29.9889 31.7982 28.2439 31.1964 25.4341C31.0423 24.7145 31.3488 23.9745 31.9666 23.5746C34.379 22.0133 35.4545 20.621 35.4545 19.5C35.4545 18.379 34.379 16.9867 31.9666 15.4254C31.3488 15.0255 31.0423 14.2855 31.1964 13.5659C31.7982 10.7561 31.5742 9.01111 30.7816 8.21843C29.9889 7.42575 28.2439 7.20181 25.4341 7.80357C24.7145 7.95769 23.9745 7.65117 23.5746 7.03337C22.0133 4.621 20.621 3.54546 19.5 3.54546C18.379 3.54546 16.9867 4.621 15.4254 7.03337C15.0255 7.65117 14.2855 7.95769 13.5659 7.80357C10.7561 7.20181 9.01111 7.42575 8.21843 8.21843C7.42576 9.01111 7.20181 10.7561 7.80357 13.5659C7.95768 14.2855 7.65117 15.0255 7.03336 15.4254C4.621 16.9867 3.54545 18.379 3.54545 19.5C3.54545 20.621 4.621 22.0133 7.03336 23.5746C7.65117 23.9745 7.95768 24.7145 7.80357 25.4341C7.20181 28.2439 7.42576 29.9889 8.21843 30.7816C9.01111 31.5742 10.7561 31.7982 13.5659 31.1964ZM25.3376 12.9285L17.7275 20.5386L13.6628 16.4739L11.1558 18.9809L17.7275 25.5526L27.8446 15.4355L25.3376 12.9285Z" fill="#90604C"/>
</svg>
