<svg width="39" height="39" viewBox="0 0 39 39" fill="none" xmlns="http://www.w3.org/2000/svg">
<path fill-rule="evenodd" clip-rule="evenodd" d="M26.5909 8.86363H31.7068C28.2845 4.94835 24.5359 3.54546 19.5 3.54546C10.6885 3.54546 3.54546 10.6886 3.54546 19.5C3.54546 28.3114 10.6885 35.4545 19.5 35.4545C28.3115 35.4545 35.4545 28.3114 35.4545 19.5H39C39 30.2695 30.2696 39 19.5 39C8.73045 39 0 30.2695 0 19.5C0 8.73045 8.73045 0 19.5 0C25.1964 0 29.7161 1.61417 33.6818 5.7728V1.75714H37.2273V12.4091H26.5909V8.86363ZM10.6365 17.7272H17.7274V8.86356H21.2729V21.2726H10.6365V17.7272Z" fill="#90604C"/>
</svg>
