<svg width="39" height="39" viewBox="0 0 39 39" fill="none" xmlns="http://www.w3.org/2000/svg">
<path fill-rule="evenodd" clip-rule="evenodd" d="M39 19.5C39 16.2192 36.7957 13.65 33.15 13.65H27.1576C27.1751 13.6021 27.1931 13.5529 27.2118 13.5023C27.2661 13.3558 27.4188 12.9532 27.5671 12.5622L27.5691 12.5569C27.6997 12.2127 27.8265 11.8785 27.8793 11.7369C28.2501 10.7417 28.5206 9.93985 28.7395 9.14575C29.0704 7.94554 29.25 6.86421 29.25 5.85001C29.25 2.97958 27.4791 1.19675 24.8591 0.433853C23.6774 0.0897525 22.6489 -0.000182827 21.45 2.78858e-07H20.515L19.9295 0.72908C19.2683 1.55257 17.9696 3.03659 16.4722 4.74757L16.4717 4.74826C13.7089 7.90521 10.2703 11.8345 8.9121 13.8128C8.55967 13.7081 8.1864 13.6519 7.8 13.6519H3.9C1.74609 13.6519 0 15.398 0 17.5519V35.1019C0 37.2558 1.74609 39.0019 3.9 39.0019H7.8C9.13994 39.0019 10.322 38.3262 11.0241 37.2969C11.6157 37.6795 12.2757 37.9988 12.9931 38.2554C14.6356 38.8431 16.2647 39.0236 17.6171 38.9988L31.2 39C36.5725 39 39 31.09 39 19.5ZM11.7002 17.55C11.7002 17.0816 11.7868 16.6669 11.9765 16.224C12.3173 15.4284 15.409 11.9011 18.3393 8.55792L18.3394 8.5578C19.8517 6.8324 21.3211 5.15602 22.3471 3.92952C22.8374 3.96629 23.2995 4.04164 23.769 4.17835C24.8864 4.50372 25.3502 4.97061 25.3502 5.85001C25.3502 6.46735 25.2253 7.21953 24.98 8.1093C24.7967 8.77419 24.5593 9.47774 24.2249 10.3753C24.1775 10.5025 24.0595 10.8136 23.9338 11.1448L23.9331 11.1466L23.9325 11.1483C23.7792 11.5523 23.615 11.9852 23.5542 12.1496C23.3006 12.8352 23.1335 13.3401 23.0193 13.7988C22.5335 15.7489 23.0208 17.55 25.3502 17.55H33.1502C34.4981 17.55 35.1002 18.2518 35.1002 19.5C35.1002 28.842 33.1797 35.1 31.2002 35.1H17.5502L17.4782 35.1012C16.6247 35.1165 15.4259 34.9837 14.3071 34.5834C12.5815 33.966 11.7002 32.9594 11.7002 31.2V17.55ZM3.90002 35.1019V17.5519H7.80002V35.1019H3.90002Z" fill="#90604C"/>
</svg>
