<svg width="39" height="39" viewBox="0 0 39 39" fill="none" xmlns="http://www.w3.org/2000/svg">
<path fill-rule="evenodd" clip-rule="evenodd" d="M35.1 7.8H27.3V4.01471C27.3 1.82158 25.5796 0 23.4 0H3.9C1.72038 0 0 1.82158 0 4.01471V34.9853C0 37.1784 1.72038 39 3.9 39H23.4C25.5796 39 27.3 37.1784 27.3 34.9853V31.2H35.1C37.2539 31.2 39 29.4539 39 27.3V11.7C39 9.54608 37.2539 7.8 35.1 7.8ZM27.3 17.55H35.1V27.3H27.3V17.55ZM23.4 34.9853V4.01471C23.4 3.97581 23.3949 3.94882 23.3915 3.93085C23.3873 3.9084 23.3857 3.89999 23.4 3.89999H3.9C3.91428 3.89999 3.9127 3.9084 3.90847 3.93085C3.90508 3.94882 3.9 3.97581 3.9 4.01471V34.9853C3.9 35.0242 3.90508 35.0512 3.90847 35.0692C3.9127 35.0916 3.91428 35.1 3.9 35.1H23.4C23.3857 35.1 23.3873 35.0916 23.3915 35.0692C23.3949 35.0512 23.4 35.0242 23.4 34.9853ZM5.85 29.25V33.15H9.75V29.25H5.85ZM11.7 33.15V29.25H15.6V33.15H11.7ZM17.55 29.25V33.15H21.45V29.25H17.55ZM5.85 27.3V23.4H9.75V27.3H5.85ZM11.7 23.4V27.3H15.6V23.4H11.7ZM17.55 27.3V23.4H21.45V27.3H17.55ZM21.45 21.45V5.85001H5.85V21.45H21.45ZM9.75 9.75V17.55H17.55V9.75H9.75ZM35.1 11.7V13.65H27.3V11.7H35.1Z" fill="#90604C"/>
</svg>
