<svg width="26" height="26" viewBox="0 0 26 26" fill="none" xmlns="http://www.w3.org/2000/svg">
<path d="M9.15915 18.5409C9.00269 18.5828 8.86679 18.6872 8.7859 18.8273C8.70454 18.9676 8.68219 19.1379 8.72399 19.2939C8.76591 19.4504 8.87045 19.5868 9.01102 19.6675C9.15117 19.7486 9.32103 19.7709 9.47749 19.729C9.63395 19.6871 9.77036 19.5827 9.85121 19.4424C9.93209 19.3023 9.95445 19.1319 9.91253 18.9755C9.87073 18.8195 9.76618 18.6831 9.62608 18.6022C9.48597 18.5213 9.31561 18.499 9.15915 18.5409Z" fill="#90604C"/>
<path d="M8.00609 20.5381C7.84963 20.58 7.71373 20.6844 7.63238 20.8247C7.55161 20.9652 7.52913 21.1351 7.57105 21.2916C7.61298 21.448 7.71752 21.5844 7.85763 21.6653C7.9982 21.7461 8.16856 21.7684 8.32456 21.7266C8.48102 21.6847 8.61692 21.5803 8.69827 21.44C8.77916 21.2999 8.80152 21.1296 8.7596 20.9731C8.71767 20.8167 8.61325 20.6808 8.47302 20.5994C8.33292 20.5185 8.16255 20.4962 8.00609 20.5381Z" fill="#90604C"/>
<path d="M21.4718 4.57525C21.315 3.99011 20.9412 3.50209 20.4195 3.201L17.5662 1.55349C16.4857 0.929561 15.0992 1.30107 14.4755 2.38163L11.8644 6.90407C11.8633 6.90583 11.8624 6.9074 11.8614 6.90917L11.3413 7.81004C10.7594 7.96793 10.2741 8.34064 9.97412 8.86024L7.66772 12.8548C7.357 13.3932 7.2933 14.0073 7.44116 14.5653L4.47129 19.7095C4.17001 20.2311 4.09037 20.8407 4.24712 21.4257C4.40391 22.0109 4.77767 22.4989 5.29943 22.8001L8.15273 24.4475C8.67454 24.7489 9.28401 24.8284 9.86915 24.6716C10.4541 24.5149 10.9424 24.1412 11.2436 23.6193L14.2141 18.4741C14.7958 18.3162 15.2814 17.9436 15.5815 17.4238L17.8876 13.4293C18.1877 12.9095 18.2678 12.3029 18.1136 11.72L21.2477 6.29167C21.5489 5.76975 21.6285 5.16008 21.4718 4.57525ZM14.554 6.27594C15.2454 6.09067 15.9674 6.18567 16.5873 6.54371C17.2071 6.90144 17.6505 7.47927 17.8358 8.17057C18.0211 8.86203 17.9259 9.58401 17.568 10.2039L17.3669 10.5522C17.2712 10.4735 17.1687 10.4016 17.0594 10.3385L13.0648 8.0321C12.9553 7.96904 12.842 7.91615 12.7258 7.87263L12.9282 7.52233C13.2862 6.90358 13.8634 6.46097 14.554 6.27594ZM10.1779 23.0042C10.0409 23.2414 9.81826 23.4114 9.55069 23.4831C9.28311 23.5548 9.00529 23.5189 8.76806 23.3819L5.91456 21.7345C5.67732 21.5975 5.50735 21.3748 5.43566 21.1073C5.36396 20.8397 5.39998 20.5618 5.53679 20.3246L8.18835 15.732C8.28344 15.8102 8.38582 15.8821 8.4959 15.9457L9.96052 16.7912L9.93866 16.8291C9.76872 17.1235 9.86953 17.4997 10.1639 17.6696C10.3109 17.7546 10.4785 17.7717 10.6306 17.731C10.7826 17.6903 10.9192 17.5916 11.0042 17.4443L11.026 17.4064L12.4906 18.252C12.5999 18.3151 12.7133 18.368 12.8295 18.4115L10.1779 23.0042ZM16.822 12.814L14.5159 16.8085C14.379 17.0457 14.1562 17.2159 13.8886 17.2876C13.6209 17.3593 13.343 17.3233 13.1058 17.1865L11.6412 16.3409L12.0145 15.6945L13.1936 16.3753C13.3408 16.4602 13.5085 16.4775 13.6605 16.4368C13.8126 16.396 13.9492 16.2972 14.034 16.1501L16.011 12.7259C16.0926 12.5847 16.1147 12.4169 16.0724 12.2592C16.0302 12.1016 15.9272 11.9672 15.7859 11.8856L12.3618 9.90885C12.0676 9.73887 11.6912 9.83972 11.5215 10.134L9.54435 13.558C9.46282 13.6995 9.44077 13.8673 9.48302 14.025C9.52524 14.1825 9.62827 14.3169 9.76956 14.3985L10.9489 15.0794L10.5757 15.7257L9.11107 14.8801C8.91931 14.7693 8.77681 14.6058 8.69065 14.4186C8.6834 14.3989 8.67542 14.3797 8.66624 14.3609C8.55657 14.0791 8.57069 13.7517 8.73326 13.4702L11.0398 9.47537C11.1766 9.23833 11.3993 9.06821 11.6668 8.99651C11.9344 8.92482 12.2124 8.96079 12.4497 9.09776L16.4442 11.404C16.6814 11.541 16.8516 11.7638 16.9233 12.0312C16.995 12.2988 16.959 12.5768 16.822 12.814ZM12.4263 13.7507C12.1322 13.5807 11.7558 13.6815 11.586 13.9758L11.5641 14.0137L10.9176 13.6404L12.2794 11.2819L14.6378 12.6436L13.276 15.002L12.6296 14.6289L12.6515 14.591C12.8215 14.2968 12.7206 13.9204 12.4263 13.7507ZM20.1821 5.67635L18.9918 7.73808C18.7043 6.77991 18.0727 5.9805 17.2026 5.47801C16.3325 4.97568 15.3242 4.82837 14.3507 5.05853L15.541 2.9968C15.8256 2.50388 16.4581 2.33441 16.951 2.61899L19.8044 4.2665C20.0416 4.40347 20.2116 4.62614 20.2833 4.89371C20.3549 5.16114 20.3189 5.43915 20.1821 5.67635Z" fill="#90604C"/>
</svg>
