<svg width="32" height="39" viewBox="0 0 32 39" fill="none" xmlns="http://www.w3.org/2000/svg">
<path d="M29.9447 34.3763L29.9448 34.3763L29.9478 34.3738C30.8037 33.6766 31.325 32.7281 31.325 31.6676V13.3009C31.325 12.2427 30.8056 11.2591 29.9466 10.5938C29.0912 9.89736 27.9402 9.48227 26.6658 9.48227H23.8374V3.30431C23.8374 2.66069 23.5741 2.05092 23.0901 1.61985C22.6076 1.15624 21.911 0.875 21.1333 0.875H11.0667C10.2891 0.875 9.59242 1.15624 9.10988 1.61984C8.62589 2.05091 8.3626 2.66068 8.3626 3.30431V9.44838H5.53416C4.26169 9.44838 3.06727 9.86245 2.25097 10.5618C1.39585 11.2589 0.875 12.2071 0.875 13.2671V31.6676C0.875 32.7259 1.39443 33.7095 2.25339 34.3748C2.87221 34.8786 3.68637 35.2506 4.6188 35.401V36.0729C4.6188 36.862 5.01505 37.5734 5.6216 38.0675C6.22781 38.5613 7.08816 38.875 8.03003 38.875H8.15482C9.09669 38.875 9.95704 38.5613 10.5632 38.0675C11.1698 37.5734 11.566 36.862 11.566 36.0729V35.4863H20.634V36.0729C20.634 36.862 21.0302 37.5734 21.6368 38.0675C22.243 38.5613 23.1033 38.875 24.0452 38.875H24.17C25.0674 38.875 25.9286 38.5969 26.5368 38.1014L26.5784 38.0675C27.185 37.5734 27.5812 36.862 27.5812 36.0729V35.4003C28.4761 35.2491 29.289 34.8771 29.9447 34.3763ZM10.5216 2.6896L10.5221 2.6902L10.5319 2.68027C10.6693 2.54036 10.8419 2.48048 11.0667 2.48048H21.1333C21.3467 2.48048 21.5277 2.56687 21.6784 2.6896C21.8561 2.83439 21.9651 3.06934 21.9651 3.30431V9.44838H20.3016V5.47307C20.3016 5.01124 20.1712 4.57611 19.9015 4.24487C19.5859 3.8063 19.0909 3.55206 18.5127 3.55206H13.6873C13.1091 3.55206 12.6141 3.80631 12.2985 4.24488C12.0288 4.57612 11.8984 5.01125 11.8984 5.47307V9.48227H10.2349V3.30431C10.2349 3.06934 10.3439 2.83439 10.5216 2.6896ZM9.20541 36.9878L9.20526 36.9875L9.19901 36.9926C8.92906 37.2125 8.54069 37.3712 8.11322 37.3712H7.98843C7.55406 37.3712 7.17143 37.2425 6.90887 36.9981L6.90906 36.9979L6.90264 36.9926C6.6317 36.7719 6.44952 36.4657 6.44952 36.1407V35.5541H9.65214V36.1407C9.65214 36.4728 9.50548 36.7739 9.20541 36.9878ZM25.3038 36.9878L25.3036 36.9875L25.2974 36.9926L25.2558 37.0265C24.9899 37.2431 24.603 37.3712 24.2116 37.3712H24.0868C23.6524 37.3712 23.2698 37.2425 23.0072 36.9981L23.0074 36.9979L23.001 36.9926C22.73 36.7719 22.5479 36.4657 22.5479 36.1407V35.5541H25.7505V36.1407C25.7505 36.4728 25.6038 36.7739 25.3038 36.9878ZM28.6706 33.2621L28.6705 33.262L28.6668 33.2651C28.148 33.6876 27.4687 33.9486 26.7074 33.9486H21.5909H10.6091H5.49256C4.72853 33.9486 4.01039 33.6861 3.53698 33.2683L3.53705 33.2682L3.53322 33.2651C3.01389 32.842 2.70572 32.2989 2.70572 31.7015V13.3009C2.70572 12.701 3.01615 12.1263 3.5294 11.7404L3.52945 11.7405L3.53322 11.7374C4.05196 11.3148 4.73131 11.0539 5.49256 11.0539H9.27796H12.8138H19.303H22.8388H26.6242C27.4704 11.0539 28.1493 11.3159 28.6668 11.7374C29.1861 12.1605 29.4943 12.7036 29.4943 13.3009V31.7015C29.4943 32.3015 29.1838 32.8761 28.6706 33.2621ZM13.8123 5.47307C13.8123 5.32269 13.837 5.21963 13.8853 5.12365H18.3212C18.3617 5.19925 18.3877 5.31269 18.3877 5.43918V9.44838H13.8123V5.47307Z" fill="#90604C" stroke="#90604C" stroke-width="0.25"/>
<path d="M16.0323 18.6974L16.032 18.6972C15.7525 18.4175 15.2987 18.4173 15.0187 18.697C15.0186 18.697 15.0186 18.6971 15.0185 18.6971L12.2542 21.4615C11.9746 21.741 11.9744 22.1946 12.2542 22.4747C12.2542 22.4747 12.2542 22.4747 12.2543 22.4748M16.0323 18.6974L13.6212 22.8282C13.3836 23.0658 13.0722 23.1846 12.7611 23.1846C12.4496 23.1846 12.1382 23.0658 11.9006 22.8282L12.2543 22.4748M16.0323 18.6974C16.3118 18.9768 16.312 19.4303 16.0322 19.7105L16.0323 18.6974ZM12.2543 22.4748C12.3943 22.6148 12.5769 22.6846 12.7611 22.6846C12.9449 22.6846 13.1275 22.6148 13.2677 22.4747L13.2677 22.4746L16.032 19.7106L12.2543 22.4748Z" fill="#90604C" stroke="#90604C"/>
<path d="M15.0188 24.2264L15.0188 24.2264C14.7392 24.506 14.7392 24.9598 15.0187 25.2395C15.1593 25.3798 15.3417 25.4495 15.5257 25.4495C15.7096 25.4495 15.8922 25.3797 16.0323 25.2396L15.0188 24.2264ZM15.0188 24.2264L17.783 21.4619C17.783 21.4619 17.783 21.4619 17.783 21.4619C18.063 21.182 18.5165 21.182 18.7965 21.4619C19.076 21.7415 19.0762 22.1951 18.7965 22.4751C18.7964 22.4751 18.7964 22.4752 18.7964 22.4752L16.0323 25.2396L15.0188 24.2264Z" fill="#90604C" stroke="#90604C"/>
</svg>
