<svg width="31" height="40" viewBox="0 0 31 40" fill="none" xmlns="http://www.w3.org/2000/svg">
<path d="M28.8939 4.73056L22.127 0.781153C20.2967 -0.286979 17.9574 0.333063 16.9117 2.16346L13.0092 8.99752C12.9636 9.00904 12.9182 9.01996 12.8727 9.032C6.99058 10.5911 3.51157 16.6835 5.11748 22.613C5.12981 22.6586 5.14345 22.7037 5.15631 22.7491L1.25343 29.5839C0.208809 31.414 0.847553 33.772 2.67755 34.8402L9.44479 38.7896C10.3289 39.3053 11.3593 39.4455 12.3463 39.1839C13.3336 38.9222 14.1551 38.2912 14.6598 37.4073L15.4872 35.9583L15.488 35.957L15.4885 35.956L18.5624 30.5727C18.6078 30.5615 18.6533 30.5506 18.6984 30.5386C24.5811 28.9794 28.0601 22.8869 26.4539 16.9575C26.4415 16.9117 26.428 16.8668 26.4151 16.8214L30.3178 9.98699C30.8228 9.10303 30.9522 8.06813 30.6827 7.07322C30.4131 6.07805 29.778 5.24606 28.8939 4.73056ZM21.0962 2.58615L27.8632 6.53555C28.2651 6.77009 28.554 7.14967 28.6773 7.60475C28.8006 8.05982 28.742 8.53178 28.5128 8.9336L28.2002 9.48108L18.4043 3.76426L18.7167 3.21685C19.1939 2.38203 20.261 2.09891 21.0962 2.58615ZM11.7988 37.1625C11.3473 37.2821 10.8773 37.2188 10.4758 36.9845L3.70853 33.0352C2.87351 32.5478 2.58212 31.4721 3.05869 30.6372L3.37151 30.0894L13.1674 35.8062L12.8545 36.354C12.6253 36.7558 12.2502 37.0428 11.7988 37.1625ZM14.1981 34.0012L4.40223 28.2844L6.17014 25.188C8.16027 28.7267 11.9397 30.9322 15.9662 30.9048L14.1981 34.0012ZM18.1509 28.5172C13.3745 29.7832 8.42733 26.8962 7.12284 22.0815C5.81881 17.2664 8.64389 12.3191 13.4202 11.0531C18.1971 9.78703 23.1444 12.6742 24.4486 17.489C25.7529 22.3041 22.9277 27.2511 18.1509 28.5172ZM15.6054 8.66568L17.3736 5.56926L27.1695 11.2861L25.4013 14.3825C23.4112 10.8441 19.6316 8.63807 15.6054 8.66568Z" fill="#90604C"/>
</svg>
