<svg width="28" height="39" viewBox="0 0 28 39" fill="none" xmlns="http://www.w3.org/2000/svg">
<path d="M27.0956 5.18956L18.4265 0.184618C18.1494 0.024681 17.8121 0.00939144 17.5215 0.143544C17.2309 0.277697 17.0237 0.544563 16.9657 0.859305L15.7334 7.55654L0.318995 28.9993C0.168674 29.2081 0.106295 29.4678 0.14504 29.7223L0.596305 32.6856C0.596787 32.6884 0.59727 32.6912 0.597818 32.6943L1.42231 38.1087C1.46753 38.4043 1.64451 38.6635 1.90363 38.8131C2.13102 38.9444 2.39989 38.9788 2.65082 38.9115C2.68575 38.9022 2.72014 38.8908 2.75426 38.8775L10.6556 35.7904C10.8956 35.697 11.0889 35.5129 11.1949 35.2785L21.3309 12.8185C21.3311 12.8182 21.3311 12.8182 21.3311 12.8182L22.0577 11.2079L27.2414 6.79202C27.485 6.58445 27.6128 6.27146 27.5836 5.95271C27.5546 5.6342 27.3726 5.3495 27.0956 5.18956ZM12.7199 27.1111L2.35639 31.1603L2.15249 29.8227L2.86542 28.8312L13.8871 24.5253L12.7199 27.1111ZM15.0457 21.9581L4.97886 25.8909L7.10829 22.929L16.2128 19.372L15.0457 21.9581ZM17.3712 16.8049L9.22172 19.9887L11.3507 17.0272L18.5381 14.2191L17.3712 16.8049ZM19.6967 11.652L13.4644 14.0868L16.9412 9.25036L19.9871 11.0087L19.6967 11.652ZM9.56509 34.1024L3.18421 36.595L2.66036 33.1558L11.5616 29.6782L9.56509 34.1024ZM21.1416 9.4011L17.7559 7.44656L18.6501 2.58791L24.9025 6.19749L21.1416 9.4011Z" fill="#90604C"/>
</svg>
