<svg width="38" height="20" viewBox="0 0 38 20" fill="none" xmlns="http://www.w3.org/2000/svg">
<path d="M9.94926 6.70315C9.51468 6.26827 8.80989 6.26827 8.37501 6.70286L5.8452 9.23267C5.41032 9.66726 5.41032 10.372 5.8452 10.8069C6.06235 11.0244 6.34734 11.1331 6.63232 11.1331C6.91702 11.1331 7.20201 11.0244 7.41945 10.8069L9.94926 8.2774C10.3841 7.84252 10.3841 7.13773 9.94926 6.70315Z" fill="#90604C"/>
<path d="M10.905 9.23338L8.37547 11.7632C7.9406 12.1978 7.9406 12.9029 8.37547 13.3374C8.59291 13.5549 8.87761 13.6636 9.1626 13.6636C9.44759 13.6636 9.73257 13.5549 9.95001 13.3374L12.4795 10.8076C12.9141 10.3728 12.9141 9.66797 12.4792 9.23338C12.0444 8.79851 11.3396 8.79851 10.905 9.23338Z" fill="#90604C"/>
<path d="M29.6251 6.70315C29.1905 6.26827 28.4855 6.26827 28.0506 6.70286L25.5208 9.23267C25.0862 9.66726 25.0862 10.372 25.5208 10.8069C25.7382 11.0244 26.0232 11.1331 26.3082 11.1331C26.5929 11.1331 26.8779 11.0244 27.0953 10.8069L29.6251 8.2774C30.0597 7.84252 30.06 7.13773 29.6251 6.70315Z" fill="#90604C"/>
<path d="M30.5801 9.23338L28.0505 11.7632C27.616 12.1978 27.616 12.9029 28.0505 13.3374C28.2683 13.5549 28.553 13.6636 28.838 13.6636C29.1227 13.6636 29.4076 13.5549 29.6251 13.3374L32.1546 10.8076C32.5892 10.3728 32.5892 9.66797 32.1546 9.23338C31.7197 8.79851 31.0149 8.79851 30.5801 9.23338Z" fill="#90604C"/>
<path d="M38 5.54799C38 4.93307 37.5016 4.43471 36.8867 4.43471H36.0958C34.4189 2.26062 31.7894 0.857422 28.8378 0.857422H9.16225C6.21089 0.857422 3.58105 2.26062 1.90417 4.43471H1.11328C0.498367 4.43471 0 4.93307 0 5.54799C0 6.00693 0.277741 6.40063 0.674347 6.57111C0.240051 7.63626 0 8.80028 0 10.0197C0 15.0718 4.11015 19.1819 9.16225 19.1819C14.2143 19.1819 18.3245 15.0718 18.3245 10.0197V8.52921C18.3245 8.15666 18.6275 7.8537 19 7.8537C19.3725 7.8537 19.6755 8.15666 19.6755 8.52921V10.0197C19.6755 15.0718 23.7857 19.1819 28.8378 19.1819C33.8898 19.1819 38 15.0718 38 10.0197C38 8.80028 37.7599 7.63626 37.3257 6.57111C37.7223 6.40063 38 6.00693 38 5.54799ZM16.0979 10.0197C16.0979 13.844 12.9868 16.9554 9.16225 16.9554C5.33795 16.9554 2.22656 13.844 2.22656 10.0197C2.22656 6.19537 5.33795 3.08398 9.16225 3.08398H13.8575C15.0928 3.08398 16.0979 4.08913 16.0979 5.32446V10.0197ZM19 5.62714C18.7675 5.62714 18.5414 5.65555 18.3245 5.70744V5.32446C18.3245 4.50835 18.1036 3.74326 17.7194 3.08398H20.2806C19.8964 3.74326 19.6755 4.50835 19.6755 5.32446V5.70744C19.4586 5.65555 19.2325 5.62714 19 5.62714ZM28.8378 16.9554C25.0135 16.9554 21.9021 13.844 21.9021 10.0197V5.32446C21.9021 4.08913 22.9072 3.08398 24.1425 3.08398H28.8378C32.662 3.08398 35.7734 6.19537 35.7734 10.0197C35.7734 13.844 32.662 16.9554 28.8378 16.9554Z" fill="#90604C"/>
</svg>
