<svg width="32" height="36" viewBox="0 0 32 36" fill="none" xmlns="http://www.w3.org/2000/svg">
<path d="M5.70843 0.563601C5.66946 0.555185 5.63658 0.550179 5.59884 0.545515C5.59066 0.544307 5.58411 0.542808 5.57314 0.540298C5.56724 0.538951 5.56007 0.537311 5.5507 0.535269C5.52731 0.530177 5.49441 0.523828 5.45597 0.523828C5.30463 0.523828 5.16596 0.554529 5.04077 0.601226C5.02967 0.602718 5.01406 0.605946 4.99678 0.613584L1.43515 2.07062L1.43486 2.07073C1.09054 2.21241 0.85 2.51188 0.85 2.86132V32.0279C0.85 32.54 1.34599 32.9071 1.89123 32.9071H3.6736H5.45597C6.00121 32.9071 6.4972 32.54 6.4972 32.0279V8.10166L12.1554 13.5025L11.7278 14.0279C11.4833 14.328 11.4833 14.7265 11.7278 15.0267L11.7278 15.0267L13.3268 16.989V32.0279C13.3268 32.54 13.8228 32.9071 14.368 32.9071H16.1504H17.9328C18.478 32.9071 18.974 32.54 18.974 32.0279V16.989L20.5729 15.0267L20.4566 14.9319L20.5729 15.0266C20.8175 14.7265 20.8175 14.328 20.5729 14.0278L20.4566 14.1225L20.5729 14.0278L20.1436 13.5009L25.8036 8.09733V32.0265C25.8036 32.5385 26.2995 32.9057 26.8448 32.9057H28.6272H30.4095C30.9548 32.9057 31.4508 32.5385 31.4508 32.0265V30.5682C31.4508 30.5597 31.4501 30.552 31.449 30.5451V2.85838C31.449 2.50894 31.2085 2.20947 30.8641 2.06779L30.8638 2.06768L26.7307 0.692764M5.70843 0.563601C5.89043 0.602387 6.05878 0.675512 6.19526 0.792258C6.20771 0.798556 6.22243 0.807961 6.2366 0.821996L15.3855 9.55524C15.59 9.37484 15.8779 9.29316 16.1504 9.29316C16.4218 9.29316 16.7085 9.37417 16.9128 9.55302L26.0639 0.816145L26.0722 0.808206L26.0725 0.808546C26.0874 0.796292 26.1019 0.788774 26.1121 0.784234C26.2444 0.673859 26.4066 0.603927 26.5806 0.565269L26.5818 0.564994L26.5818 0.564999C26.6266 0.555436 26.6657 0.54866 26.7146 0.54363M5.70843 0.563601C5.7085 0.563617 5.70858 0.563633 5.70866 0.56365L5.67696 0.710264L5.7082 0.563553C5.70828 0.563569 5.70835 0.563585 5.70843 0.563601ZM26.7146 0.54363C26.7149 0.5436 26.7152 0.543571 26.7155 0.543542L26.7307 0.692764M26.7146 0.54363C26.7144 0.54365 26.7143 0.54367 26.7141 0.54369L26.7307 0.692764M26.7146 0.54363C26.7213 0.542856 26.7268 0.541574 26.7402 0.538511C26.744 0.537621 26.7485 0.536582 26.7539 0.535361C26.7747 0.530661 26.8068 0.523828 26.8448 0.523828C26.9913 0.523828 27.1274 0.552623 27.2505 0.597567M26.7307 0.692764C26.7469 0.690956 26.7622 0.687409 26.7775 0.68387C26.7991 0.678842 26.8207 0.673828 26.8448 0.673828C26.9785 0.673828 27.1032 0.701514 27.2172 0.745263M27.2505 0.597567C27.2505 0.597565 27.2505 0.597563 27.2505 0.597561C27.2448 0.597036 27.2401 0.596864 27.2369 0.596794L27.2304 0.596733C27.2296 0.596733 27.2293 0.596727 27.2294 0.596726C27.2296 0.596725 27.2327 0.596763 27.2364 0.597067C27.2422 0.597555 27.2522 0.598848 27.2641 0.602766L27.2172 0.745263M27.2505 0.597567C27.2616 0.598602 27.2793 0.601256 27.2994 0.609506M27.2505 0.597567C27.2574 0.600067 27.2642 0.602617 27.271 0.605215L27.2172 0.745263M27.2172 0.745263L27.2994 0.609506M27.2994 0.609506C27.2994 0.60954 27.2995 0.609574 27.2996 0.609608L27.2422 0.748203L27.299 0.60937L27.2994 0.609506ZM17.0166 9.66128L17.0078 9.65095L16.8919 9.74611M17.0166 9.66128L17.0071 9.65L17.0063 9.64915L16.8919 9.74611M17.0166 9.66128L16.9079 9.76505M17.0166 9.66128L16.9079 9.76505M16.8919 9.74611L16.9079 9.76505M16.8919 9.74611C16.8672 9.71604 16.8398 9.68821 16.8101 9.66262L16.9079 9.76505M5.06585 0.599673L5.06529 0.599679L5.06585 0.599673ZM15.4092 19.5205C15.6059 19.6887 15.8739 19.7821 16.1505 19.7821C16.4271 19.7821 16.695 19.6887 16.8917 19.5205V29.6904H15.4092V19.5205ZM17.0694 16.2222L16.1504 17.3501L15.2257 16.2153L15.1807 16.16H15.1801L13.8503 14.528L14.3196 13.952L14.325 13.9476L14.3346 13.9358L16.1504 11.7059L17.9589 13.9261C17.9616 13.9298 17.9643 13.9334 17.9671 13.9366C17.9707 13.9408 17.9742 13.9445 17.9778 13.9478L18.4505 14.528L17.0855 16.2031C17.0821 16.2066 17.0786 16.2104 17.0753 16.2145C17.0732 16.217 17.0713 16.2196 17.0694 16.2222ZM18.0148 13.974C18.0144 13.9738 18.0131 13.9731 18.0111 13.9719C18.0143 13.9737 18.0153 13.9743 18.0148 13.974ZM4.41475 29.6904H2.93237V3.41272L4.41475 2.80752V29.6904ZM14.1605 11.0421L13.3721 12.0091L6.4972 5.44836V3.72809L14.1605 11.0421ZM25.8036 3.7237V5.444L18.9269 12.0076L18.1384 11.0393L25.8036 3.7237ZM29.3684 29.6904H27.886V2.80619L29.3684 3.41264V29.6904Z" fill="#90604C" stroke="#90604C" stroke-width="0.3"/>
<path d="M15.1093 33.486V34.9443C15.1093 35.4564 15.6053 35.8235 16.1505 35.8235C16.6958 35.8235 17.1918 35.4564 17.1918 34.9443V33.486C17.1918 32.9739 16.6958 32.6068 16.1505 32.6068C15.6053 32.6068 15.1093 32.9739 15.1093 33.486Z" fill="#90604C" stroke="#90604C" stroke-width="0.3"/>
<path d="M28.6271 32.6068C28.0818 32.6068 27.5858 32.9739 27.5858 33.486V34.9443C27.5858 35.4564 28.0818 35.8235 28.6271 35.8235C29.1723 35.8235 29.6683 35.4564 29.6683 34.9443V33.486C29.6683 32.9739 29.1723 32.6068 28.6271 32.6068Z" fill="#90604C" stroke="#90604C" stroke-width="0.3"/>
<path d="M2.63223 33.486V34.9443C2.63223 35.4564 3.12822 35.8235 3.67345 35.8235C4.21869 35.8235 4.71468 35.4564 4.71468 34.9443V33.486C4.71468 32.9739 4.21869 32.6068 3.67345 32.6068C3.12822 32.6068 2.63223 32.9739 2.63223 33.486Z" fill="#90604C" stroke="#90604C" stroke-width="0.3"/>
</svg>
