<svg width="45" height="41" viewBox="0 0 45 41" fill="none" xmlns="http://www.w3.org/2000/svg">
<mask id="path-1-outside-1_1674_23225" maskUnits="userSpaceOnUse" x="0" y="0" width="45" height="41" fill="black">
<rect fill="white" width="45" height="41"/>
<path fill-rule="evenodd" clip-rule="evenodd" d="M40.2823 15.7833C41.1142 15.6305 41.9545 15.8116 42.6492 16.2936C43.9879 17.2222 44.3969 19.0539 43.5803 20.4639L37.8801 30.3072V39.2327C37.8801 39.6965 37.504 40.0727 37.0402 40.0727H19.064C18.7319 40.0727 18.4455 39.8793 18.3092 39.5993L17.6844 39.9601C17.5556 40.0345 17.4105 40.0727 17.2644 40.0727C17.1916 40.0727 17.1186 40.0633 17.047 40.044C16.8318 39.9864 16.6484 39.8456 16.537 39.6527L11.1138 30.2594C10.5405 30.0273 10.063 29.6143 9.74878 29.0699L1.38224 14.5788C0.594461 13.2142 1.06368 11.4629 2.42826 10.6751C2.79192 10.4651 3.18287 10.3453 3.57591 10.3071L3.27088 9.77887C2.48302 8.41421 2.95224 6.66296 4.31683 5.8751C4.68056 5.66514 5.07151 5.54538 5.46448 5.50708L5.33791 5.28788C4.55005 3.92322 5.01919 2.17198 6.38377 1.38403C7.0449 1.00249 7.81504 0.901039 8.55225 1.09857C9.28955 1.29619 9.90583 1.7691 10.2875 2.43023L10.414 2.64943C10.6436 2.32836 10.9429 2.04953 11.3065 1.83965C12.6712 1.05187 14.4224 1.5211 15.2103 2.88559L18.2583 8.16452C18.7823 7.50617 19.5898 7.08297 20.4946 7.08297C20.9144 7.08297 21.313 7.17477 21.6724 7.33803V6.72814C21.6724 5.15242 22.9543 3.87048 24.5301 3.87048C24.9499 3.87048 25.3484 3.96219 25.7079 4.12546V3.87224C25.7079 2.29653 26.9899 1.01459 28.5656 1.01459C30.1413 1.01459 31.4233 2.29644 31.4233 3.87224V4.12546C31.7828 3.96219 32.1813 3.87048 32.6012 3.87048C34.1769 3.87048 35.4589 5.15233 35.4589 6.72814V21.1777L38.2515 17.102C38.7294 16.4045 39.4507 15.9361 40.2823 15.7833ZM12.1466 3.29451C11.8742 3.45182 11.6793 3.70578 11.5979 4.00964C11.5164 4.3135 11.5582 4.63096 11.7154 4.90332L17.6367 15.1593V10.4146C17.6005 10.3736 17.5677 10.3284 17.5393 10.2791L13.7556 3.72561C13.4309 3.16316 12.709 2.96991 12.1466 3.29451ZM17.5719 38.0854L18.2242 37.7088V28.2439C17.8461 27.7495 17.6367 27.1429 17.6367 26.5037V18.5191L17.3157 17.9632L17.3154 17.9627L8.83276 3.27016C8.67546 2.99763 8.4214 2.80278 8.11763 2.72132C7.81369 2.63994 7.49631 2.68168 7.22387 2.83898C6.95134 2.99628 6.75649 3.25034 6.67503 3.55419C6.59365 3.85813 6.63539 4.17551 6.79269 4.44796L8.22043 6.9208L8.22068 6.92122L15.2755 19.1404C15.5075 19.5422 15.3699 20.0558 14.9681 20.2878C14.8359 20.3641 14.6914 20.4005 14.5489 20.4005C14.2586 20.4005 13.9763 20.2497 13.8207 19.9803L6.76582 7.76098C6.44105 7.19862 5.7192 7.00537 5.15684 7.32997C4.59456 7.65474 4.40106 8.3765 4.72583 8.93894L12.2705 22.0068C12.3027 22.0624 12.3167 22.0912 12.3167 22.1012C12.479 22.4859 12.334 22.94 11.963 23.1542C11.5614 23.3863 11.0476 23.2485 10.8156 22.8468L4.87725 12.5612C4.55249 11.9988 3.83089 11.8053 3.26828 12.13C2.70583 12.4548 2.5125 13.1765 2.8371 13.7389L11.2036 28.2299C11.3521 28.4873 11.5919 28.6713 11.8789 28.7481L14.5629 29.4674C15.011 29.5875 15.2769 30.048 15.1568 30.4961C15.0563 30.8714 14.7169 31.1188 14.346 31.1189C14.274 31.1189 14.2009 31.1095 14.1282 31.09L13.4244 30.9015L17.5719 38.0854ZM36.3134 29.6606L42.1268 19.6219C42.5081 18.9633 42.3171 18.1076 41.6913 17.6739C41.3666 17.4487 40.9741 17.3643 40.5856 17.4355C40.197 17.507 39.8601 17.7257 39.6369 18.0516L36.5522 22.5535C36.28 22.9508 35.8302 23.1974 35.349 23.2134C34.8661 23.2295 34.4026 23.0132 34.1046 22.6351C33.8943 22.3682 33.7785 22.0341 33.7785 21.6943V6.72814C33.7785 6.07877 33.2502 5.55042 32.6007 5.55042C31.9513 5.55042 31.4229 6.07877 31.4229 6.72814V20.8378C31.4229 21.3015 31.0468 21.6777 30.583 21.6777C30.1192 21.6777 29.7431 21.3016 29.7431 20.8378V6.72822V3.87233C29.7431 3.22296 29.2147 2.69461 28.5653 2.69461C27.9158 2.69461 27.3875 3.22296 27.3875 3.87233V6.72814V20.8377C27.3875 21.3015 27.0113 21.6776 26.5475 21.6776C26.0838 21.6776 25.7076 21.3015 25.7076 20.8377V6.72814C25.7076 6.07877 25.1793 5.55042 24.5298 5.55042C23.8804 5.55042 23.3521 6.07877 23.3521 6.72814V9.94079V21.8175C23.3521 22.2813 22.9759 22.6575 22.5122 22.6575C22.0484 22.6575 21.6722 22.2814 21.6722 21.8175V9.94079C21.6722 9.29134 21.1439 8.763 20.4944 8.763C19.845 8.763 19.3166 9.29134 19.3166 9.94079V26.5035C19.3166 26.8684 19.4804 27.2079 19.7656 27.4352L21.5977 28.8947C21.9604 29.1838 22.0202 29.7122 21.7312 30.0751C21.5654 30.2833 21.3206 30.3917 21.0737 30.3917C20.8903 30.3918 20.7055 30.3319 20.5508 30.2087L19.9042 29.6935V38.3927H36.2002V35.9713H26.3939C25.9302 35.9713 25.554 35.5951 25.554 35.1314C25.554 34.6676 25.9301 34.2914 26.3939 34.2914H36.2003V30.0815C36.2003 29.9281 36.2421 29.7848 36.3139 29.661L36.3134 29.6606ZM22.5128 34.2915C22.7336 34.2915 22.9504 34.3815 23.1066 34.5376C23.2628 34.6938 23.3527 34.9106 23.3527 35.1314C23.3527 35.3523 23.2627 35.5691 23.1066 35.7253C22.9496 35.8823 22.7336 35.9714 22.5128 35.9714C22.2919 35.9714 22.0751 35.8823 21.9189 35.7253C21.7627 35.5691 21.6729 35.3531 21.6729 35.1314C21.6729 34.9106 21.7628 34.6938 21.9189 34.5376C22.0751 34.3814 22.291 34.2915 22.5128 34.2915Z"/>
</mask>
<path fill-rule="evenodd" clip-rule="evenodd" d="M40.2823 15.7833C41.1142 15.6305 41.9545 15.8116 42.6492 16.2936C43.9879 17.2222 44.3969 19.0539 43.5803 20.4639L37.8801 30.3072V39.2327C37.8801 39.6965 37.504 40.0727 37.0402 40.0727H19.064C18.7319 40.0727 18.4455 39.8793 18.3092 39.5993L17.6844 39.9601C17.5556 40.0345 17.4105 40.0727 17.2644 40.0727C17.1916 40.0727 17.1186 40.0633 17.047 40.044C16.8318 39.9864 16.6484 39.8456 16.537 39.6527L11.1138 30.2594C10.5405 30.0273 10.063 29.6143 9.74878 29.0699L1.38224 14.5788C0.594461 13.2142 1.06368 11.4629 2.42826 10.6751C2.79192 10.4651 3.18287 10.3453 3.57591 10.3071L3.27088 9.77887C2.48302 8.41421 2.95224 6.66296 4.31683 5.8751C4.68056 5.66514 5.07151 5.54538 5.46448 5.50708L5.33791 5.28788C4.55005 3.92322 5.01919 2.17198 6.38377 1.38403C7.0449 1.00249 7.81504 0.901039 8.55225 1.09857C9.28955 1.29619 9.90583 1.7691 10.2875 2.43023L10.414 2.64943C10.6436 2.32836 10.9429 2.04953 11.3065 1.83965C12.6712 1.05187 14.4224 1.5211 15.2103 2.88559L18.2583 8.16452C18.7823 7.50617 19.5898 7.08297 20.4946 7.08297C20.9144 7.08297 21.313 7.17477 21.6724 7.33803V6.72814C21.6724 5.15242 22.9543 3.87048 24.5301 3.87048C24.9499 3.87048 25.3484 3.96219 25.7079 4.12546V3.87224C25.7079 2.29653 26.9899 1.01459 28.5656 1.01459C30.1413 1.01459 31.4233 2.29644 31.4233 3.87224V4.12546C31.7828 3.96219 32.1813 3.87048 32.6012 3.87048C34.1769 3.87048 35.4589 5.15233 35.4589 6.72814V21.1777L38.2515 17.102C38.7294 16.4045 39.4507 15.9361 40.2823 15.7833ZM12.1466 3.29451C11.8742 3.45182 11.6793 3.70578 11.5979 4.00964C11.5164 4.3135 11.5582 4.63096 11.7154 4.90332L17.6367 15.1593V10.4146C17.6005 10.3736 17.5677 10.3284 17.5393 10.2791L13.7556 3.72561C13.4309 3.16316 12.709 2.96991 12.1466 3.29451ZM17.5719 38.0854L18.2242 37.7088V28.2439C17.8461 27.7495 17.6367 27.1429 17.6367 26.5037V18.5191L17.3157 17.9632L17.3154 17.9627L8.83276 3.27016C8.67546 2.99763 8.4214 2.80278 8.11763 2.72132C7.81369 2.63994 7.49631 2.68168 7.22387 2.83898C6.95134 2.99628 6.75649 3.25034 6.67503 3.55419C6.59365 3.85813 6.63539 4.17551 6.79269 4.44796L8.22043 6.9208L8.22068 6.92122L15.2755 19.1404C15.5075 19.5422 15.3699 20.0558 14.9681 20.2878C14.8359 20.3641 14.6914 20.4005 14.5489 20.4005C14.2586 20.4005 13.9763 20.2497 13.8207 19.9803L6.76582 7.76098C6.44105 7.19862 5.7192 7.00537 5.15684 7.32997C4.59456 7.65474 4.40106 8.3765 4.72583 8.93894L12.2705 22.0068C12.3027 22.0624 12.3167 22.0912 12.3167 22.1012C12.479 22.4859 12.334 22.94 11.963 23.1542C11.5614 23.3863 11.0476 23.2485 10.8156 22.8468L4.87725 12.5612C4.55249 11.9988 3.83089 11.8053 3.26828 12.13C2.70583 12.4548 2.5125 13.1765 2.8371 13.7389L11.2036 28.2299C11.3521 28.4873 11.5919 28.6713 11.8789 28.7481L14.5629 29.4674C15.011 29.5875 15.2769 30.048 15.1568 30.4961C15.0563 30.8714 14.7169 31.1188 14.346 31.1189C14.274 31.1189 14.2009 31.1095 14.1282 31.09L13.4244 30.9015L17.5719 38.0854ZM36.3134 29.6606L42.1268 19.6219C42.5081 18.9633 42.3171 18.1076 41.6913 17.6739C41.3666 17.4487 40.9741 17.3643 40.5856 17.4355C40.197 17.507 39.8601 17.7257 39.6369 18.0516L36.5522 22.5535C36.28 22.9508 35.8302 23.1974 35.349 23.2134C34.8661 23.2295 34.4026 23.0132 34.1046 22.6351C33.8943 22.3682 33.7785 22.0341 33.7785 21.6943V6.72814C33.7785 6.07877 33.2502 5.55042 32.6007 5.55042C31.9513 5.55042 31.4229 6.07877 31.4229 6.72814V20.8378C31.4229 21.3015 31.0468 21.6777 30.583 21.6777C30.1192 21.6777 29.7431 21.3016 29.7431 20.8378V6.72822V3.87233C29.7431 3.22296 29.2147 2.69461 28.5653 2.69461C27.9158 2.69461 27.3875 3.22296 27.3875 3.87233V6.72814V20.8377C27.3875 21.3015 27.0113 21.6776 26.5475 21.6776C26.0838 21.6776 25.7076 21.3015 25.7076 20.8377V6.72814C25.7076 6.07877 25.1793 5.55042 24.5298 5.55042C23.8804 5.55042 23.3521 6.07877 23.3521 6.72814V9.94079V21.8175C23.3521 22.2813 22.9759 22.6575 22.5122 22.6575C22.0484 22.6575 21.6722 22.2814 21.6722 21.8175V9.94079C21.6722 9.29134 21.1439 8.763 20.4944 8.763C19.845 8.763 19.3166 9.29134 19.3166 9.94079V26.5035C19.3166 26.8684 19.4804 27.2079 19.7656 27.4352L21.5977 28.8947C21.9604 29.1838 22.0202 29.7122 21.7312 30.0751C21.5654 30.2833 21.3206 30.3917 21.0737 30.3917C20.8903 30.3918 20.7055 30.3319 20.5508 30.2087L19.9042 29.6935V38.3927H36.2002V35.9713H26.3939C25.9302 35.9713 25.554 35.5951 25.554 35.1314C25.554 34.6676 25.9301 34.2914 26.3939 34.2914H36.2003V30.0815C36.2003 29.9281 36.2421 29.7848 36.3139 29.661L36.3134 29.6606ZM22.5128 34.2915C22.7336 34.2915 22.9504 34.3815 23.1066 34.5376C23.2628 34.6938 23.3527 34.9106 23.3527 35.1314C23.3527 35.3523 23.2627 35.5691 23.1066 35.7253C22.9496 35.8823 22.7336 35.9714 22.5128 35.9714C22.2919 35.9714 22.0751 35.8823 21.9189 35.7253C21.7627 35.5691 21.6729 35.3531 21.6729 35.1314C21.6729 34.9106 21.7628 34.6938 21.9189 34.5376C22.0751 34.3814 22.291 34.2915 22.5128 34.2915Z" fill="#90604C"/>
<path d="M42.6492 16.2936L42.7632 16.1292L42.7632 16.1292L42.6492 16.2936ZM40.2823 15.7833L40.2462 15.5866L40.2461 15.5866L40.2823 15.7833ZM43.5803 20.4639L43.4072 20.3637V20.3637L43.5803 20.4639ZM37.8801 30.3072L37.707 30.207L37.6801 30.2535V30.3072H37.8801ZM18.3092 39.5993L18.4891 39.5118L18.3951 39.3188L18.2092 39.4261L18.3092 39.5993ZM17.6844 39.9601L17.5844 39.7869L17.5844 39.7869L17.6844 39.9601ZM17.047 40.044L17.099 39.8509L17.0987 39.8508L17.047 40.044ZM16.537 39.6527L16.7102 39.5527L16.7102 39.5527L16.537 39.6527ZM11.1138 30.2594L11.287 30.1594L11.2526 30.0999L11.1888 30.074L11.1138 30.2594ZM9.74878 29.0699L9.92199 28.97L9.92198 28.9699L9.74878 29.0699ZM1.38224 14.5788L1.20903 14.6787L1.20903 14.6788L1.38224 14.5788ZM2.42826 10.6751L2.52827 10.8483L2.52827 10.8483L2.42826 10.6751ZM3.57591 10.3071L3.59531 10.5061L3.90443 10.476L3.74911 10.207L3.57591 10.3071ZM3.27088 9.77887L3.09767 9.87887L3.09769 9.8789L3.27088 9.77887ZM4.31683 5.8751L4.21684 5.70189L4.21682 5.7019L4.31683 5.8751ZM5.46448 5.50708L5.48387 5.70614L5.79296 5.67602L5.63768 5.40708L5.46448 5.50708ZM5.33791 5.28788L5.1647 5.38788L5.16471 5.38789L5.33791 5.28788ZM6.38377 1.38403L6.2838 1.21081L6.28376 1.21083L6.38377 1.38403ZM8.55225 1.09857L8.60403 0.905389L8.60401 0.905385L8.55225 1.09857ZM10.2875 2.43023L10.1142 2.53021L10.1143 2.53023L10.2875 2.43023ZM10.414 2.64943L10.2408 2.74943L10.3961 3.01833L10.5767 2.76577L10.414 2.64943ZM11.3065 1.83965L11.4065 2.01287L11.4065 2.01286L11.3065 1.83965ZM15.2103 2.88559L15.3835 2.78559L15.3835 2.78558L15.2103 2.88559ZM18.2583 8.16452L18.0851 8.26453L18.232 8.51882L18.4148 8.28907L18.2583 8.16452ZM21.6724 7.33803L21.5897 7.52013L21.8724 7.64854V7.33803H21.6724ZM25.7079 4.12546L25.6252 4.30755L25.9079 4.43596V4.12546H25.7079ZM31.4233 4.12546H31.2233V4.43596L31.5061 4.30755L31.4233 4.12546ZM35.4589 21.1777H35.2589V21.8234L35.6239 21.2907L35.4589 21.1777ZM38.2515 17.102L38.4165 17.215L38.4165 17.215L38.2515 17.102ZM11.5979 4.00964L11.4047 3.95785L11.4047 3.95785L11.5979 4.00964ZM12.1466 3.29451L12.0466 3.1213L12.0466 3.12131L12.1466 3.29451ZM11.7154 4.90332L11.5422 5.00331L11.5422 5.00332L11.7154 4.90332ZM17.6367 15.1593L17.4635 15.2593L17.8367 15.9057V15.1593H17.6367ZM17.6367 10.4146H17.8367V10.3391L17.7867 10.2824L17.6367 10.4146ZM17.5393 10.2791L17.3661 10.3791L17.3661 10.3791L17.5393 10.2791ZM13.7556 3.72561L13.5824 3.8256L13.5824 3.82561L13.7556 3.72561ZM18.2242 37.7088L18.3242 37.882L18.4242 37.8242V37.7088H18.2242ZM17.5719 38.0854L17.3987 38.1854L17.4987 38.3587L17.672 38.2586L17.5719 38.0854ZM18.2242 28.2439H18.4242V28.1762L18.383 28.1224L18.2242 28.2439ZM17.6367 18.5191H17.8367V18.4655L17.8099 18.419L17.6367 18.5191ZM17.3157 17.9632L17.4893 17.8629L17.4821 17.8522L17.3157 17.9632ZM17.3154 17.9627L17.1418 18.0629L17.149 18.0736L17.3154 17.9627ZM8.83276 3.27016L8.65954 3.37014L8.65955 3.37016L8.83276 3.27016ZM8.11763 2.72132L8.16944 2.52814L8.16936 2.52812L8.11763 2.72132ZM7.22387 2.83898L7.32385 3.0122L7.32387 3.01218L7.22387 2.83898ZM6.67503 3.55419L6.48185 3.5024L6.48183 3.50246L6.67503 3.55419ZM6.79269 4.44796L6.96589 4.34795V4.34795L6.79269 4.44796ZM8.22043 6.9208L8.0472 7.02081L8.04888 7.02361L8.22043 6.9208ZM8.22068 6.92122L8.39391 6.8212L8.39223 6.8184L8.22068 6.92122ZM15.2755 19.1404L15.1023 19.2404L15.1023 19.2404L15.2755 19.1404ZM14.9681 20.2878L14.8681 20.1146L14.8681 20.1146L14.9681 20.2878ZM13.8207 19.9803L13.6475 20.0803L13.6475 20.0803L13.8207 19.9803ZM6.76582 7.76098L6.93902 7.66098L6.93901 7.66096L6.76582 7.76098ZM5.15684 7.32997L5.05686 7.15675L5.05681 7.15678L5.15684 7.32997ZM4.72583 8.93894L4.89904 8.83894L4.89903 8.83893L4.72583 8.93894ZM12.2705 22.0068L12.0973 22.1068L12.0973 22.1068L12.2705 22.0068ZM12.3167 22.1012H12.1167V22.1417L12.1324 22.179L12.3167 22.1012ZM11.963 23.1542L11.863 22.981L11.8629 22.981L11.963 23.1542ZM10.8156 22.8468L10.6424 22.9468L10.6424 22.9468L10.8156 22.8468ZM4.87725 12.5612L5.05046 12.4612L5.05045 12.4612L4.87725 12.5612ZM3.26828 12.13L3.16829 11.9568L3.16827 11.9568L3.26828 12.13ZM2.8371 13.7389L2.66389 13.8389L2.6639 13.8389L2.8371 13.7389ZM11.2036 28.2299L11.3769 28.13L11.3768 28.1299L11.2036 28.2299ZM11.8789 28.7481L11.9306 28.5549L11.9306 28.5549L11.8789 28.7481ZM14.5629 29.4674L14.6147 29.2742L14.6146 29.2742L14.5629 29.4674ZM15.1568 30.4961L14.9636 30.4443L14.9636 30.4443L15.1568 30.4961ZM14.346 31.1189V31.3189H14.3461L14.346 31.1189ZM14.1282 31.09L14.0764 31.2832H14.0764L14.1282 31.09ZM13.4244 30.9015L13.4761 30.7083L13.0098 30.5834L13.2512 31.0015L13.4244 30.9015ZM42.1268 19.6219L42.2998 19.7222L42.2998 19.7221L42.1268 19.6219ZM36.3134 29.6606L36.1404 29.5604L36.056 29.706L36.1851 29.814L36.3134 29.6606ZM41.6913 17.6739L41.5773 17.8382L41.5774 17.8383L41.6913 17.6739ZM40.5856 17.4355L40.5495 17.2388L40.5494 17.2388L40.5856 17.4355ZM39.6369 18.0516L39.8019 18.1646L39.8019 18.1646L39.6369 18.0516ZM36.5522 22.5535L36.7172 22.6666V22.6666L36.5522 22.5535ZM35.349 23.2134L35.3423 23.0135L35.3423 23.0135L35.349 23.2134ZM34.1046 22.6351L33.9475 22.7588L33.9476 22.7589L34.1046 22.6351ZM19.7656 27.4352L19.641 27.5916L19.641 27.5916L19.7656 27.4352ZM21.5977 28.8947L21.7223 28.7383L21.7223 28.7382L21.5977 28.8947ZM21.7312 30.0751L21.5747 29.9505L21.5747 29.9505L21.7312 30.0751ZM21.0737 30.3917V30.1917H21.0736L21.0737 30.3917ZM20.5508 30.2087L20.4262 30.3651L20.4262 30.3651L20.5508 30.2087ZM19.9042 29.6935L20.0288 29.5371L19.7042 29.2785V29.6935H19.9042ZM19.9042 38.3927H19.7042V38.5927H19.9042V38.3927ZM36.2002 38.3927V38.5927H36.4002V38.3927H36.2002ZM36.2002 35.9713H36.4002V35.7713H36.2002V35.9713ZM36.2003 34.2914V34.4914H36.4003V34.2914H36.2003ZM36.3139 29.661L36.4869 29.7614L36.5714 29.6157L36.4423 29.5077L36.3139 29.661ZM23.1066 34.5376L23.248 34.3962L23.248 34.3961L23.1066 34.5376ZM23.1066 35.7253L23.248 35.8667L23.2481 35.8667L23.1066 35.7253ZM21.9189 35.7253L22.0607 35.5842L22.0603 35.5839L21.9189 35.7253ZM21.9189 34.5376L21.7775 34.3962L21.7775 34.3962L21.9189 34.5376ZM42.7632 16.1292C42.0247 15.617 41.1304 15.4242 40.2462 15.5866L40.3184 15.98C41.098 15.8368 41.8843 16.0063 42.5352 16.4579L42.7632 16.1292ZM43.7534 20.5641C44.6221 19.064 44.1874 17.1172 42.7632 16.1292L42.5352 16.4579C43.7883 17.3271 44.1716 19.0437 43.4072 20.3637L43.7534 20.5641ZM38.0532 30.4074L43.7534 20.5641L43.4072 20.3637L37.707 30.207L38.0532 30.4074ZM38.0801 39.2327V30.3072H37.6801V39.2327H38.0801ZM37.0402 40.2727C37.6145 40.2727 38.0801 39.8069 38.0801 39.2327H37.6801C37.6801 39.5861 37.3935 39.8727 37.0402 39.8727V40.2727ZM19.064 40.2727H37.0402V39.8727H19.064V40.2727ZM18.1294 39.6869C18.2976 40.0325 18.652 40.2727 19.064 40.2727V39.8727C18.8117 39.8727 18.5933 39.726 18.4891 39.5118L18.1294 39.6869ZM17.7844 40.1333L18.4093 39.7725L18.2092 39.4261L17.5844 39.7869L17.7844 40.1333ZM17.2644 40.2727C17.4453 40.2727 17.6249 40.2255 17.7844 40.1333L17.5844 39.7869C17.4863 39.8436 17.3758 39.8727 17.2644 39.8727V40.2727ZM16.9951 40.2372C17.0839 40.261 17.1743 40.2727 17.2644 40.2727V39.8727C17.2088 39.8727 17.1533 39.8655 17.099 39.8509L16.9951 40.2372ZM16.3638 39.7527C16.5017 39.9915 16.7288 40.1659 16.9953 40.2372L17.0987 39.8508C16.9348 39.807 16.7951 39.6997 16.7102 39.5527L16.3638 39.7527ZM10.9406 30.3594L16.3638 39.7527L16.7102 39.5527L11.287 30.1594L10.9406 30.3594ZM9.57557 29.1699C9.91215 29.753 10.4242 30.196 11.0387 30.4448L11.1888 30.074C10.6568 29.8586 10.214 29.4757 9.92199 28.97L9.57557 29.1699ZM1.20903 14.6788L9.57557 29.1699L9.92198 28.9699L1.55544 14.4788L1.20903 14.6788ZM2.32826 10.5019C0.868023 11.345 0.366032 13.2185 1.20903 14.6787L1.55545 14.4788C0.822891 13.2098 1.25934 11.5809 2.52827 10.8483L2.32826 10.5019ZM3.55652 10.108C3.13599 10.149 2.71742 10.2772 2.32826 10.5019L2.52827 10.8483C2.86641 10.653 3.22975 10.5417 3.59531 10.5061L3.55652 10.108ZM3.09769 9.8789L3.40272 10.4071L3.74911 10.207L3.44407 9.67885L3.09769 9.8789ZM4.21682 5.7019C2.75658 6.54499 2.25459 8.41855 3.09767 9.87887L3.44409 9.67888C2.71145 8.40986 3.14791 6.78094 4.41683 6.04831L4.21682 5.7019ZM5.44508 5.30803C5.02462 5.349 4.60607 5.47722 4.21684 5.70189L4.41681 6.04832C4.75506 5.85307 5.1184 5.74176 5.48387 5.70614L5.44508 5.30803ZM5.16471 5.38789L5.29127 5.60709L5.63768 5.40708L5.51111 5.18788L5.16471 5.38789ZM6.28376 1.21083C4.82352 2.05401 4.32163 3.92757 5.1647 5.38788L5.51112 5.18789C4.77848 3.91887 5.21486 2.28994 6.48378 1.55723L6.28376 1.21083ZM8.60401 0.905385C7.81555 0.694121 6.99083 0.802776 6.2838 1.21081L6.48374 1.55726C7.09896 1.20221 7.81452 1.10796 8.50049 1.29176L8.60401 0.905385ZM10.4607 2.33024C10.0525 1.62317 9.39256 1.11674 8.60403 0.905389L8.50047 1.29175C9.18654 1.47564 9.75914 1.91503 10.1142 2.53021L10.4607 2.33024ZM10.5872 2.54942L10.4607 2.33022L10.1143 2.53023L10.2408 2.74943L10.5872 2.54942ZM11.2066 1.66643C10.8174 1.89105 10.497 2.18958 10.2513 2.53309L10.5767 2.76577C10.7903 2.46713 11.0684 2.20801 11.4065 2.01287L11.2066 1.66643ZM15.3835 2.78558C14.5403 1.32544 12.6669 0.823447 11.2065 1.66644L11.4065 2.01286C12.6755 1.2803 14.3044 1.71676 15.0371 2.98561L15.3835 2.78558ZM18.4315 8.06452L15.3835 2.78559L15.0371 2.9856L18.0851 8.26453L18.4315 8.06452ZM20.4946 6.88297C19.526 6.88297 18.662 7.33625 18.1019 8.03998L18.4148 8.28907C18.9027 7.67609 19.6537 7.28297 20.4946 7.28297V6.88297ZM21.7551 7.15593C21.3705 6.98126 20.9439 6.88297 20.4946 6.88297V7.28297C20.885 7.28297 21.2554 7.36827 21.5897 7.52013L21.7551 7.15593ZM21.4724 6.72814V7.33803H21.8724V6.72814H21.4724ZM24.5301 3.67048C22.8438 3.67048 21.4724 5.04197 21.4724 6.72814H21.8724C21.8724 5.26287 23.0647 4.07048 24.5301 4.07048V3.67048ZM25.7906 3.94336C25.406 3.76867 24.9793 3.67048 24.5301 3.67048V4.07048C24.9205 4.07048 25.2908 4.15571 25.6252 4.30755L25.7906 3.94336ZM25.5079 3.87224V4.12546H25.9079V3.87224H25.5079ZM28.5656 0.814586C26.8794 0.814586 25.5079 2.18606 25.5079 3.87224H25.9079C25.9079 2.40699 27.1003 1.21459 28.5656 1.21459V0.814586ZM31.6234 3.87224C31.6234 2.18597 30.2518 0.814586 28.5656 0.814586V1.21459C30.0309 1.21459 31.2233 2.40691 31.2233 3.87224H31.6234ZM31.6234 4.12546V3.87224H31.2233V4.12546H31.6234ZM32.6012 3.67048C32.1519 3.67048 31.7252 3.76867 31.3406 3.94336L31.5061 4.30755C31.8404 4.15571 32.2107 4.07048 32.6012 4.07048V3.67048ZM35.6589 6.72814C35.6589 5.04187 34.2873 3.67048 32.6012 3.67048V4.07048C34.0664 4.07048 35.2589 5.2628 35.2589 6.72814H35.6589ZM35.6589 21.1777V6.72814H35.2589V21.1777H35.6589ZM38.0866 16.9889L35.2939 21.0646L35.6239 21.2907L38.4165 17.215L38.0866 16.9889ZM40.2461 15.5866C39.3622 15.749 38.5945 16.2475 38.0866 16.9889L38.4165 17.215C38.8643 16.5615 39.5392 16.1232 40.3184 15.98L40.2461 15.5866ZM11.791 4.06143C11.8588 3.80878 12.0201 3.59849 12.2466 3.46772L12.0466 3.12131C11.7282 3.30514 11.4999 3.60279 11.4047 3.95785L11.791 4.06143ZM11.8887 4.80333C11.7579 4.5769 11.7233 4.31403 11.791 4.06143L11.4047 3.95785C11.3095 4.31296 11.3585 4.68502 11.5422 5.00331L11.8887 4.80333ZM17.8099 15.0593L11.8887 4.80332L11.5422 5.00332L17.4635 15.2593L17.8099 15.0593ZM17.4367 10.4146V15.1593H17.8367V10.4146H17.4367ZM17.3661 10.3791C17.4013 10.4401 17.4419 10.4961 17.4867 10.5469L17.7867 10.2824C17.7591 10.251 17.7342 10.2166 17.7125 10.1791L17.3661 10.3791ZM13.5824 3.82561L17.3661 10.3791L17.7125 10.1791L13.9288 3.6256L13.5824 3.82561ZM12.2466 3.46773C12.7134 3.19831 13.313 3.35887 13.5824 3.8256L13.9288 3.62562C13.5489 2.96746 12.7046 2.74151 12.0466 3.1213L12.2466 3.46773ZM18.1241 37.5356L17.4719 37.9122L17.672 38.2586L18.3242 37.882L18.1241 37.5356ZM18.0242 28.2439V37.7088H18.4242V28.2439H18.0242ZM17.4367 26.5037C17.4367 27.1871 17.6607 27.8364 18.0653 28.3654L18.383 28.1224C18.0315 27.6627 17.8367 27.0988 17.8367 26.5037H17.4367ZM17.4367 18.5191V26.5037H17.8367V18.5191H17.4367ZM17.1425 18.0632L17.4635 18.6191L17.8099 18.419L17.4889 17.8632L17.1425 18.0632ZM17.149 18.0736L17.1493 18.0741L17.4821 17.8522L17.4818 17.8517L17.149 18.0736ZM8.65955 3.37016L17.1422 18.0627L17.4886 17.8627L9.00597 3.17016L8.65955 3.37016ZM8.06583 2.91449C8.31842 2.98223 8.52878 3.14358 8.65954 3.37014L9.00598 3.17018C8.82214 2.85167 8.52439 2.62334 8.16944 2.52814L8.06583 2.91449ZM7.32387 3.01218C7.55036 2.88142 7.81315 2.84684 8.0659 2.91451L8.16936 2.52812C7.81423 2.43304 7.44227 2.48194 7.12386 2.66578L7.32387 3.01218ZM6.86821 3.60598C6.93595 3.35331 7.0973 3.14296 7.32385 3.0122L7.12389 2.66576C6.80538 2.84961 6.57704 3.14736 6.48185 3.5024L6.86821 3.60598ZM6.96589 4.34795C6.83513 4.12147 6.80055 3.85867 6.86822 3.60592L6.48183 3.50246C6.38675 3.85759 6.43565 4.22955 6.61949 4.54796L6.96589 4.34795ZM8.39363 6.82079L6.96589 4.34795L6.61949 4.54796L8.04722 7.0208L8.39363 6.82079ZM8.39223 6.8184L8.39198 6.81798L8.04888 7.02361L8.04913 7.02403L8.39223 6.8184ZM15.4487 19.0404L8.39389 6.82122L8.04748 7.02122L15.1023 19.2404L15.4487 19.0404ZM15.0681 20.461C15.5655 20.1738 15.736 19.5378 15.4487 19.0403L15.1023 19.2404C15.2791 19.5465 15.1742 19.9378 14.8681 20.1146L15.0681 20.461ZM14.5489 20.6005C14.7255 20.6005 14.9047 20.5553 15.0681 20.461L14.8681 20.1146C14.7671 20.1729 14.6572 20.2005 14.5489 20.2005V20.6005ZM13.6475 20.0803C13.8403 20.4141 14.19 20.6005 14.5489 20.6005V20.2005C14.3272 20.2005 14.1124 20.0854 13.9939 19.8803L13.6475 20.0803ZM6.59261 7.86098L13.6475 20.0803L13.9939 19.8803L6.93902 7.66098L6.59261 7.86098ZM5.25682 7.50318C5.72357 7.23377 6.32311 7.39431 6.59262 7.861L6.93901 7.66096C6.55899 7.00292 5.71483 6.77696 5.05686 7.15675L5.25682 7.50318ZM4.89903 8.83893C4.62951 8.37217 4.7902 7.7727 5.25687 7.50316L5.05681 7.15678C4.39893 7.53677 4.17261 8.38083 4.55263 9.03895L4.89903 8.83893ZM12.4437 21.9068L4.89904 8.83894L4.55263 9.03894L12.0973 22.1068L12.4437 21.9068ZM12.5167 22.1012C12.5167 22.0617 12.5051 22.0304 12.5019 22.0215C12.4967 22.0073 12.4906 21.994 12.4853 21.9833C12.4747 21.9615 12.4604 21.9356 12.4437 21.9067L12.0973 22.1068C12.1048 22.1198 12.1109 22.1306 12.1158 22.1395C12.1207 22.1486 12.124 22.1548 12.126 22.1589C12.1269 22.1609 12.1274 22.1619 12.1275 22.1621C12.1276 22.1624 12.127 22.1611 12.1261 22.1586C12.1253 22.1564 12.1234 22.151 12.1216 22.1433C12.1206 22.1393 12.1195 22.1339 12.1185 22.1273C12.1176 22.1208 12.1167 22.1119 12.1167 22.1012H12.5167ZM12.063 23.3274C12.5227 23.062 12.7019 22.4996 12.501 22.0235L12.1324 22.179C12.2562 22.4722 12.1453 22.818 11.863 22.981L12.063 23.3274ZM10.6424 22.9468C10.9296 23.4441 11.5657 23.6148 12.0631 23.3273L11.8629 22.981C11.5571 23.1578 11.1656 23.0529 10.9888 22.7468L10.6424 22.9468ZM4.70405 12.6612L10.6424 22.9468L10.9888 22.7468L5.05046 12.4612L4.70405 12.6612ZM3.36826 12.3032C3.8352 12.0337 4.4345 12.1944 4.70406 12.6612L5.05045 12.4612C4.67047 11.8031 3.82658 11.5768 3.16829 11.9568L3.36826 12.3032ZM3.01032 13.6389C2.74092 13.1722 2.90149 12.5728 3.36829 12.3032L3.16827 11.9568C2.51017 12.3368 2.28408 13.1809 2.66389 13.8389L3.01032 13.6389ZM11.3768 28.1299L3.01031 13.6389L2.6639 13.8389L11.0304 28.3299L11.3768 28.1299ZM11.9306 28.5549C11.6949 28.4918 11.4988 28.3414 11.3769 28.13L11.0304 28.3299C11.2054 28.6333 11.4889 28.8507 11.8271 28.9413L11.9306 28.5549ZM14.6146 29.2742L11.9306 28.5549L11.8271 28.9413L14.5111 29.6605L14.6146 29.2742ZM15.35 30.5479C15.4987 29.9931 15.1694 29.423 14.6147 29.2742L14.5111 29.6605C14.8526 29.7521 15.0551 30.103 14.9636 30.4443L15.35 30.5479ZM14.3461 31.3189C14.8051 31.3188 15.2254 31.0128 15.35 30.5478L14.9636 30.4443C14.8871 30.73 14.6287 30.9189 14.346 30.9189L14.3461 31.3189ZM14.0764 31.2832C14.166 31.3072 14.2566 31.3189 14.346 31.3189V30.9189C14.2915 30.9189 14.2358 30.9118 14.1799 30.8968L14.0764 31.2832ZM13.3726 31.0947L14.0764 31.2832L14.1799 30.8968L13.4761 30.7083L13.3726 31.0947ZM17.7451 37.9854L13.5976 30.8015L13.2512 31.0015L17.3987 38.1854L17.7451 37.9854ZM41.9537 19.5217L36.1404 29.5604L36.4865 29.7608L42.2998 19.7222L41.9537 19.5217ZM41.5774 17.8383C42.1175 18.2126 42.2828 18.9532 41.9537 19.5217L42.2998 19.7221C42.7333 18.9734 42.5167 18.0026 41.8052 17.5095L41.5774 17.8383ZM40.6216 17.6322C40.9579 17.5706 41.2964 17.6434 41.5773 17.8382L41.8053 17.5096C41.4368 17.254 40.9902 17.158 40.5495 17.2388L40.6216 17.6322ZM39.8019 18.1646C39.995 17.8826 40.2855 17.694 40.6217 17.6322L40.5494 17.2388C40.1086 17.3199 39.7252 17.5687 39.4719 17.9386L39.8019 18.1646ZM36.7172 22.6666L39.8019 18.1646L39.4719 17.9386L36.3872 22.4405L36.7172 22.6666ZM35.3556 23.4133C35.9004 23.3952 36.409 23.1163 36.7172 22.6666L36.3872 22.4405C36.151 22.7852 35.76 22.9996 35.3423 23.0135L35.3556 23.4133ZM33.9476 22.7589C34.2848 23.1868 34.8091 23.4315 35.3556 23.4133L35.3423 23.0135C34.9232 23.0275 34.5204 22.8395 34.2617 22.5113L33.9476 22.7589ZM33.5785 21.6943C33.5785 22.0791 33.7095 22.4567 33.9475 22.7588L34.2617 22.5113C34.0792 22.2796 33.9785 21.9892 33.9785 21.6943H33.5785ZM33.5785 6.72814V21.6943H33.9785V6.72814H33.5785ZM32.6007 5.75042C33.1397 5.75042 33.5785 6.18923 33.5785 6.72814H33.9785C33.9785 5.9683 33.3606 5.35042 32.6007 5.35042V5.75042ZM31.6229 6.72814C31.6229 6.18923 32.0617 5.75042 32.6007 5.75042V5.35042C31.8408 5.35042 31.2229 5.9683 31.2229 6.72814H31.6229ZM31.6229 20.8378V6.72814H31.2229V20.8378H31.6229ZM30.583 21.8777C31.1573 21.8777 31.6229 21.412 31.6229 20.8378H31.2229C31.2229 21.1911 30.9364 21.4777 30.583 21.4777V21.8777ZM29.5431 20.8378C29.5431 21.4121 30.0088 21.8777 30.583 21.8777V21.4777C30.2297 21.4777 29.9431 21.1912 29.9431 20.8378H29.5431ZM29.5431 6.72822V20.8378H29.9431V6.72822H29.5431ZM29.5431 3.87233V6.72822H29.9431V3.87233H29.5431ZM28.5653 2.89461C29.1043 2.89461 29.5431 3.33342 29.5431 3.87233H29.9431C29.9431 3.11249 29.3252 2.49461 28.5653 2.49461V2.89461ZM27.5875 3.87233C27.5875 3.33342 28.0263 2.89461 28.5653 2.89461V2.49461C27.8054 2.49461 27.1875 3.11249 27.1875 3.87233H27.5875ZM27.5875 6.72814V3.87233H27.1875V6.72814H27.5875ZM27.5875 20.8377V6.72814H27.1875V20.8377H27.5875ZM26.5475 21.8776C27.1218 21.8776 27.5875 21.4119 27.5875 20.8377H27.1875C27.1875 21.191 26.9008 21.4776 26.5475 21.4776V21.8776ZM25.5076 20.8377C25.5076 21.412 25.9733 21.8776 26.5475 21.8776V21.4776C26.1942 21.4776 25.9076 21.1911 25.9076 20.8377H25.5076ZM25.5076 6.72814V20.8377H25.9076V6.72814H25.5076ZM24.5298 5.75042C25.0688 5.75042 25.5076 6.18923 25.5076 6.72814H25.9076C25.9076 5.9683 25.2897 5.35042 24.5298 5.35042V5.75042ZM23.5521 6.72814C23.5521 6.18922 23.9909 5.75042 24.5298 5.75042V5.35042C23.77 5.35042 23.1521 5.96831 23.1521 6.72814H23.5521ZM23.5521 9.94079V6.72814H23.1521V9.94079H23.5521ZM23.5521 21.8175V9.94079H23.1521V21.8175H23.5521ZM22.5122 22.8575C23.0864 22.8575 23.5521 22.3918 23.5521 21.8175H23.1521C23.1521 22.1709 22.8655 22.4575 22.5122 22.4575V22.8575ZM21.4722 21.8175C21.4722 22.3919 21.938 22.8575 22.5122 22.8575V22.4575C22.1588 22.4575 21.8722 22.1709 21.8722 21.8175H21.4722ZM21.4722 9.94079V21.8175H21.8722V9.94079H21.4722ZM20.4944 8.963C21.0334 8.963 21.4722 9.4018 21.4722 9.94079H21.8722C21.8722 9.18089 21.2543 8.563 20.4944 8.563V8.963ZM19.5166 9.94079C19.5166 9.4018 19.9554 8.963 20.4944 8.963V8.563C19.7345 8.563 19.1166 9.18089 19.1166 9.94079H19.5166ZM19.5166 26.5035V9.94079H19.1166V26.5035H19.5166ZM19.8903 27.2788C19.6526 27.0894 19.5166 26.8074 19.5166 26.5035H19.1166C19.1166 26.9293 19.3082 27.3264 19.641 27.5916L19.8903 27.2788ZM21.7223 28.7382L19.8902 27.2788L19.641 27.5916L21.473 29.0511L21.7223 28.7382ZM21.8876 30.1997C22.2454 29.7504 22.1714 29.0963 21.7223 28.7383L21.473 29.0511C21.7494 29.2714 21.7949 29.674 21.5747 29.9505L21.8876 30.1997ZM21.0737 30.5917C21.3788 30.5917 21.6823 30.4576 21.8877 30.1997L21.5747 29.9505C21.4485 30.109 21.2624 30.1917 21.0737 30.1917V30.5917ZM20.4262 30.3651C20.6175 30.5175 20.8466 30.5918 21.0738 30.5917L21.0736 30.1917C20.9339 30.1918 20.7935 30.1463 20.6754 30.0522L20.4262 30.3651ZM19.7796 29.85L20.4262 30.3651L20.6754 30.0523L20.0288 29.5371L19.7796 29.85ZM20.1042 38.3927V29.6935H19.7042V38.3927H20.1042ZM36.2002 38.1927H19.9042V38.5927H36.2002V38.1927ZM36.0002 35.9713V38.3927H36.4002V35.9713H36.0002ZM26.3939 36.1713H36.2002V35.7713H26.3939V36.1713ZM25.354 35.1314C25.354 35.7056 25.8197 36.1713 26.3939 36.1713V35.7713C26.0406 35.7713 25.754 35.4847 25.754 35.1314H25.354ZM26.3939 34.0914C25.8196 34.0914 25.354 34.5572 25.354 35.1314H25.754C25.754 34.778 26.0406 34.4914 26.3939 34.4914V34.0914ZM36.2003 34.0914H26.3939V34.4914H36.2003V34.0914ZM36.0003 30.0815V34.2914H36.4003V30.0815H36.0003ZM36.1409 29.5607C36.0523 29.7135 36.0003 29.8912 36.0003 30.0815H36.4003C36.4003 29.965 36.4319 29.8562 36.4869 29.7614L36.1409 29.5607ZM36.1851 29.814L36.1856 29.8144L36.4423 29.5077L36.4418 29.5073L36.1851 29.814ZM23.248 34.3961C23.0544 34.2026 22.7868 34.0915 22.5128 34.0915V34.4915C22.6805 34.4915 22.8464 34.5603 22.9652 34.679L23.248 34.3961ZM23.5527 35.1314C23.5527 34.8575 23.4417 34.5898 23.248 34.3962L22.9652 34.679C23.0839 34.7977 23.1527 34.9636 23.1527 35.1314H23.5527ZM23.2481 35.8667C23.4416 35.673 23.5527 35.4054 23.5527 35.1314H23.1527C23.1527 35.2992 23.0839 35.4651 22.9652 35.5839L23.2481 35.8667ZM22.5128 36.1714C22.7866 36.1714 23.0534 36.0612 23.248 35.8667L22.9652 35.5838C22.8457 35.7033 22.6806 35.7714 22.5128 35.7714V36.1714ZM21.7772 35.8664C21.9713 36.0614 22.2392 36.1714 22.5128 36.1714V35.7714C22.3446 35.7714 22.179 35.7031 22.0607 35.5842L21.7772 35.8664ZM21.4729 35.1314C21.4729 35.4063 21.5839 35.6731 21.7775 35.8667L22.0603 35.5839C21.9415 35.4651 21.8729 35.3 21.8729 35.1314H21.4729ZM21.7775 34.3962C21.5839 34.5898 21.4729 34.8574 21.4729 35.1314H21.8729C21.8729 34.9637 21.9417 34.7977 22.0604 34.679L21.7775 34.3962ZM22.5128 34.0915C22.2378 34.0915 21.9711 34.2026 21.7775 34.3962L22.0603 34.679C22.1792 34.5602 22.3443 34.4915 22.5128 34.4915V34.0915Z" fill="#90604C" mask="url(#path-1-outside-1_1674_23225)"/>
</svg>
