<svg width="33" height="39" viewBox="0 0 33 39" fill="none" xmlns="http://www.w3.org/2000/svg">
<path d="M26.6528 5.21367H21.4896C21.265 2.8251 19.1112 0.95 16.5 0.95C13.889 0.95 11.7351 2.8251 11.5105 5.21367H6.34727C3.37449 5.21367 0.95 7.46966 0.95 10.25V15.5254C0.95 16.7813 1.70499 17.8733 2.80992 18.4312V32.8691C2.80992 35.7291 5.304 38.05 8.36219 38.05H24.6378C27.696 38.05 30.1901 35.7291 30.1901 32.8691V18.4312C31.2951 17.8732 32.05 16.7812 32.05 15.5254V10.25C32.0501 7.46966 29.6256 5.21367 26.6528 5.21367ZM24.7654 31.3738V30.3398C24.7654 28.5159 23.1752 27.0379 21.228 27.0379H11.772C9.82485 27.0379 8.23469 28.5159 8.23469 30.3398V31.3738H5.23482V18.8273H9.55345V23.2578C9.55345 23.8873 10.0997 24.3918 10.7659 24.3918C11.4322 24.3918 11.9784 23.8873 11.9784 23.2578V18.8273H21.0229V23.2578C21.0229 23.8873 21.5691 24.3918 22.2353 24.3918C22.9016 24.3918 23.4478 23.8873 23.4478 23.2578V18.8273H27.7652V31.3738H24.7654ZM10.6596 31.3738V30.3398C10.6596 29.773 11.1553 29.3059 11.772 29.3059H21.228C21.8447 29.3059 22.3405 29.773 22.3405 30.3398V31.3738H10.6596ZM16.5 3.21797C17.7774 3.21797 18.8374 4.08405 19.0474 5.21367H13.9526C14.1627 4.08405 15.2228 3.21797 16.5 3.21797ZM3.3749 10.25C3.3749 8.72678 4.70497 7.48164 6.34727 7.48164H26.6528C28.2951 7.48164 29.6252 8.72678 29.6252 10.25V15.5254C29.6252 16.0923 29.1294 16.5594 28.5127 16.5594H23.4479V14.4414C23.4479 13.8119 22.9017 13.3074 22.2354 13.3074C21.5692 13.3074 21.023 13.8119 21.023 14.4414V16.5594H11.9784V14.4414C11.9784 13.8119 11.4322 13.3074 10.766 13.3074C10.0997 13.3074 9.55353 13.8119 9.55353 14.4414V16.5594H4.48735C3.87064 16.5594 3.3749 16.0923 3.3749 15.5254V10.25ZM24.6379 35.782H8.36227C6.92303 35.782 5.71086 34.8722 5.34701 33.6417H27.6532C27.2893 34.8722 26.0771 35.782 24.6379 35.782Z" fill="#90604C" stroke="#90604C" stroke-width="0.1"/>
</svg>
