<svg width="20" height="18" viewBox="0 0 20 18" fill="none" xmlns="http://www.w3.org/2000/svg">
<path d="M18.1173 3.33753H14.1548V2.62501C14.1548 1.67358 13.3812 0.9 12.4298 0.9H7.55479C6.60336 0.9 5.82978 1.67354 5.82978 2.62501V3.33749H1.86731H1.86731C0.915848 3.33753 0.142302 4.11107 0.142302 5.0625V15.625C0.142302 16.5764 0.915845 17.35 1.86731 17.35H18.1173C19.0687 17.35 19.8423 16.5764 19.8423 15.625V5.0625C19.8423 4.11107 19.0687 3.33753 18.1173 3.33753ZM18.8298 15.525H18.8298V15.625C18.8298 16.0177 18.51 16.3375 18.1173 16.3375H1.86731C1.47465 16.3375 1.15483 16.0177 1.15483 15.625V8.8845C2.07121 9.5941 3.48386 10.0479 4.83548 10.3386C6.21523 10.6353 7.54933 10.7656 8.26865 10.8185C8.30472 11.7383 9.0638 12.475 9.99232 12.475C10.9208 12.475 11.6799 11.7383 11.716 10.8185C12.4353 10.7656 13.7694 10.6353 15.1492 10.3386C16.5008 10.0479 17.9134 9.5941 18.8298 8.8845V15.525ZM18.8298 6.99377H18.8298V7.09377C18.8298 7.47383 18.5899 7.82407 18.1493 8.14374C17.7099 8.4625 17.0878 8.73773 16.3651 8.96866C14.9535 9.41966 13.1828 9.69403 11.7097 9.8037C11.6411 8.91504 10.8987 8.21252 9.99232 8.21252C9.08592 8.21252 8.34357 8.91504 8.27496 9.8037C6.80181 9.69403 5.03111 9.41966 3.61957 8.96866C2.8968 8.73773 2.27471 8.4625 1.83534 8.14374C1.39471 7.82407 1.15486 7.47383 1.15486 7.09377V5.06254C1.15486 4.66988 1.47469 4.35005 1.86735 4.35005H18.1173C18.51 4.35005 18.8298 4.66988 18.8298 5.06254V6.99377ZM6.8423 2.62501C6.8423 2.23235 7.16213 1.91252 7.55479 1.91252H12.4298C12.8224 1.91252 13.1423 2.23235 13.1423 2.62501V3.33749H6.8423V2.62501ZM9.2798 10.75V9.93753C9.2798 9.54487 9.59962 9.22504 9.99228 9.22504C10.3849 9.22504 10.7048 9.54487 10.7048 9.93753V10.75C10.7048 11.1427 10.3849 11.4625 9.99228 11.4625C9.59962 11.4625 9.2798 11.1427 9.2798 10.75Z" fill="#90604C" stroke="#90604C" stroke-width="0.2"/>
</svg>
