<svg width="30" height="34" viewBox="0 0 30 34" fill="none" xmlns="http://www.w3.org/2000/svg">
<path d="M6.64649 12.2672L6.6465 12.2672C6.66211 12.2466 6.6779 12.2266 6.69394 12.2062C6.69753 12.2017 6.70113 12.1971 6.70475 12.1925C7.05059 12.1679 7.91488 12.3287 9.05319 13.0037C9.72727 13.4034 10.2027 13.8087 10.5101 14.1399C10.6639 14.3056 10.7753 14.4523 10.8484 14.5702C10.885 14.6291 10.9118 14.6803 10.9295 14.7227C10.9448 14.7594 10.9526 14.7876 10.955 14.8074C10.8241 15.0798 10.9095 15.4464 11.2527 15.6706L11.2528 15.6706C11.5601 15.8707 11.9559 15.813 12.1463 15.5336C12.2919 15.5167 12.5872 15.5478 13.0072 15.6664C13.4338 15.7868 13.9849 15.9964 14.6303 16.3324L10.6384 23.4776C9.99564 24.628 10.4895 26.1593 11.7283 26.8939C12.967 27.6284 14.5003 27.2991 15.1431 26.1486L15.4289 25.6371C15.5991 25.3324 15.4673 24.9329 15.1454 24.7421C14.8236 24.5513 14.4221 24.6345 14.2519 24.9392L13.9661 25.4508C13.6633 25.9928 12.9345 26.1553 12.3384 25.8018C11.7422 25.4483 11.5125 24.7175 11.8154 24.1755L15.8071 17.0307C16.3951 17.4262 16.8324 17.8009 17.1359 18.1109C17.4345 18.416 17.6005 18.6555 17.6554 18.789C17.5138 19.0914 17.6515 19.4656 17.9573 19.6469C18.3185 19.8611 18.6906 19.7571 18.8595 19.4944C18.8773 19.4866 18.9049 19.4793 18.9434 19.4745C18.9879 19.469 19.0443 19.4671 19.1122 19.4701C19.2478 19.4761 19.427 19.5016 19.6432 19.5553C20.0757 19.6628 20.6547 19.8827 21.3288 20.2824C22.4671 20.9574 23.0363 21.6465 23.1893 21.9669C23.1875 21.9719 23.1856 21.9768 23.1838 21.9818C23.1756 22.0043 23.1674 22.0264 23.1588 22.0487C23.0859 22.2373 23.1214 22.4291 23.2023 22.5886C23.283 22.7477 23.4106 22.8789 23.5303 22.9498C23.8521 23.1406 24.2536 23.0574 24.4238 22.7527C24.4952 22.6249 24.5637 22.4336 24.5554 22.1794C26.0076 17.8028 24.1055 12.6611 19.8465 9.80042L20.1418 9.27181C20.312 8.96717 20.1802 8.56766 19.8584 8.37685C19.5366 8.18603 19.1351 8.26928 18.9649 8.57393L18.6696 9.10246C14.1453 6.75239 8.80162 7.57674 5.84041 11.0822C5.62269 11.2025 5.49647 11.3597 5.42504 11.4875C5.25484 11.7922 5.38667 12.1917 5.70848 12.3825C5.81933 12.4482 5.98916 12.5016 6.16273 12.4985C6.33712 12.4953 6.51915 12.4346 6.64649 12.2672ZM16.3195 9.49433C14.5337 10.3035 12.8714 12.1148 11.7521 13.6668C11.2262 12.9796 10.4155 12.3577 9.6633 11.9116C9.02532 11.5333 8.3703 11.2434 7.77268 11.072C10.0112 9.14755 13.2457 8.56409 16.3195 9.49433ZM15.8381 15.5729C14.9785 15.0632 13.9134 14.5615 12.9542 14.3435C14.1068 12.7723 15.2852 11.6741 16.2996 11.0402C16.8122 10.7199 17.2817 10.5189 17.6838 10.4346C18.0864 10.3503 18.4174 10.3837 18.6576 10.5261C18.9067 10.6738 19.0987 10.9591 19.2221 11.3661C19.3454 11.7728 19.3989 12.2967 19.3741 12.9144C19.3251 14.1363 18.9698 15.7182 18.2519 17.4687C17.659 16.8014 16.7769 16.1296 15.8381 15.5729ZM21.9389 19.1903C21.1898 18.7462 20.2616 18.3358 19.4186 18.2117C20.1574 16.4538 20.8702 14.0644 20.6785 12.08C22.9751 14.3351 24.0905 17.4974 23.5946 20.454C23.1504 20.0073 22.5775 19.569 21.9389 19.1903Z" fill="#90604C" stroke="#90604C" stroke-width="0.08"/>
</svg>
