<svg width="34" height="35" viewBox="0 0 34 35" fill="none" xmlns="http://www.w3.org/2000/svg">
<mask id="path-1-outside-1_132_9722" maskUnits="userSpaceOnUse" x="0" y="-0.412109" width="34" height="36" fill="black">
<rect fill="white" y="-0.412109" width="34" height="36"/>
<path fill-rule="evenodd" clip-rule="evenodd" d="M14.8116 3.77754H29.5522C31.4534 3.77754 33.0002 5.41515 33 7.42837V30.8194C33 32.8326 31.4534 34.4702 29.5522 34.4702H4.94998C2.77199 34.4702 1 32.594 1 30.2879V17.5293V15.6469V4.77019C1 2.4641 2.77199 0.587891 4.94998 0.587891H10.9749C12.8302 0.587891 14.3895 1.94916 14.8116 3.77754ZM2.87501 17.5293V26.7312C3.47853 26.3349 4.18923 26.1056 4.94998 26.1056H10.9749C11.7357 26.1056 12.4466 26.3349 13.0499 26.7312V17.5293H2.87501ZM13.0499 15.6469H2.87501V4.77019C2.87501 3.55885 3.80593 2.57318 4.94998 2.57318H10.9749C12.1192 2.57318 13.0499 3.55885 13.0499 4.77019V15.6469ZM4.94998 28.0909C3.80593 28.0909 2.87501 29.0763 2.87501 30.2879C2.87501 31.4993 3.80593 32.4849 4.94998 32.4849H10.9749C12.1192 32.4849 13.0499 31.4993 13.0499 30.2879C13.0499 29.0763 12.1192 28.0909 10.9749 28.0909H4.94998ZM29.5522 32.4849C30.4194 32.4849 31.1252 31.7379 31.1252 30.8194V28.8235H14.9252V30.2879C14.9252 31.0934 14.7084 31.8459 14.3341 32.4849H29.5522ZM31.1252 9.99972V26.9412H14.9252V9.99972H31.1252ZM31.1252 8.11737V7.42837C31.1252 6.50991 30.4194 5.76284 29.5522 5.76284H14.9252V8.11737H31.1252Z"/>
</mask>
<path fill-rule="evenodd" clip-rule="evenodd" d="M14.8116 3.77754H29.5522C31.4534 3.77754 33.0002 5.41515 33 7.42837V30.8194C33 32.8326 31.4534 34.4702 29.5522 34.4702H4.94998C2.77199 34.4702 1 32.594 1 30.2879V17.5293V15.6469V4.77019C1 2.4641 2.77199 0.587891 4.94998 0.587891H10.9749C12.8302 0.587891 14.3895 1.94916 14.8116 3.77754ZM2.87501 17.5293V26.7312C3.47853 26.3349 4.18923 26.1056 4.94998 26.1056H10.9749C11.7357 26.1056 12.4466 26.3349 13.0499 26.7312V17.5293H2.87501ZM13.0499 15.6469H2.87501V4.77019C2.87501 3.55885 3.80593 2.57318 4.94998 2.57318H10.9749C12.1192 2.57318 13.0499 3.55885 13.0499 4.77019V15.6469ZM4.94998 28.0909C3.80593 28.0909 2.87501 29.0763 2.87501 30.2879C2.87501 31.4993 3.80593 32.4849 4.94998 32.4849H10.9749C12.1192 32.4849 13.0499 31.4993 13.0499 30.2879C13.0499 29.0763 12.1192 28.0909 10.9749 28.0909H4.94998ZM29.5522 32.4849C30.4194 32.4849 31.1252 31.7379 31.1252 30.8194V28.8235H14.9252V30.2879C14.9252 31.0934 14.7084 31.8459 14.3341 32.4849H29.5522ZM31.1252 9.99972V26.9412H14.9252V9.99972H31.1252ZM31.1252 8.11737V7.42837C31.1252 6.50991 30.4194 5.76284 29.5522 5.76284H14.9252V8.11737H31.1252Z" fill="#90604C"/>
<path d="M14.8116 3.77754L14.6168 3.82254L14.6525 3.97754H14.8116V3.77754ZM33 7.42837L32.8 7.42834V7.42837H33ZM2.87501 26.7312H2.67501V27.1018L2.98479 26.8984L2.87501 26.7312ZM2.87501 17.5293V17.3293H2.67501V17.5293H2.87501ZM13.0499 26.7312L12.9401 26.8984L13.2499 27.1019V26.7312H13.0499ZM13.0499 17.5293H13.2499V17.3293H13.0499V17.5293ZM2.87501 15.6469H2.67501V15.8469H2.87501V15.6469ZM13.0499 15.6469V15.8469H13.2499V15.6469H13.0499ZM31.1252 28.8235H31.3252V28.6235H31.1252V28.8235ZM14.9252 28.8235V28.6235H14.7252V28.8235H14.9252ZM14.3341 32.4849L14.1615 32.3839L13.9852 32.6849H14.3341V32.4849ZM31.1252 26.9412V27.1412H31.3252V26.9412H31.1252ZM31.1252 9.99972H31.3252V9.79972H31.1252V9.99972ZM14.9252 26.9412H14.7252V27.1412H14.9252V26.9412ZM14.9252 9.99972V9.79972H14.7252V9.99972H14.9252ZM31.1252 8.11737V8.31737H31.3252V8.11737H31.1252ZM14.9252 5.76284V5.56284H14.7252V5.76284H14.9252ZM14.9252 8.11737H14.7252V8.31737H14.9252V8.11737ZM29.5522 3.57754H14.8116V3.97754H29.5522V3.57754ZM33.2 7.42839C33.2003 5.31561 31.5744 3.57754 29.5522 3.57754V3.97754C31.3323 3.97754 32.8002 5.5147 32.8 7.42834L33.2 7.42839ZM33.2 30.8194V7.42837H32.8V30.8194H33.2ZM29.5522 34.6702C31.5744 34.6702 33.2 32.9322 33.2 30.8194H32.8C32.8 32.7331 31.3323 34.2702 29.5522 34.2702V34.6702ZM4.94998 34.6702H29.5522V34.2702H4.94998V34.6702ZM0.8 30.2879C0.8 32.6936 2.65091 34.6702 4.94998 34.6702V34.2702C2.89306 34.2702 1.2 32.4945 1.2 30.2879H0.8ZM0.8 17.5293V30.2879H1.2V17.5293H0.8ZM0.8 15.6469V17.5293H1.2V15.6469H0.8ZM0.8 4.77019V15.6469H1.2V4.77019H0.8ZM4.94998 0.387891C2.65091 0.387891 0.8 2.36456 0.8 4.77019H1.2C1.2 2.56363 2.89306 0.787891 4.94998 0.787891V0.387891ZM10.9749 0.387891H4.94998V0.787891H10.9749V0.387891ZM15.0065 3.73255C14.5657 1.82313 12.9329 0.387891 10.9749 0.387891V0.787891C12.7274 0.787891 14.2133 2.07519 14.6168 3.82254L15.0065 3.73255ZM3.07501 26.7312V17.5293H2.67501V26.7312H3.07501ZM4.94998 25.9056C4.14823 25.9056 3.39966 26.1475 2.76524 26.564L2.98479 26.8984C3.55741 26.5224 4.23024 26.3056 4.94998 26.3056V25.9056ZM10.9749 25.9056H4.94998V26.3056H10.9749V25.9056ZM13.1597 26.5641C12.5255 26.1474 11.7767 25.9056 10.9749 25.9056V26.3056C11.6947 26.3056 12.3678 26.5224 12.9401 26.8984L13.1597 26.5641ZM12.8499 17.5293V26.7312H13.2499V17.5293H12.8499ZM2.87501 17.7293H13.0499V17.3293H2.87501V17.7293ZM2.87501 15.8469H13.0499V15.4469H2.87501V15.8469ZM2.67501 4.77019V15.6469H3.07501V4.77019H2.67501ZM4.94998 2.37318C3.68486 2.37318 2.67501 3.45932 2.67501 4.77019H3.07501C3.07501 3.65839 3.927 2.77318 4.94998 2.77318V2.37318ZM10.9749 2.37318H4.94998V2.77318H10.9749V2.37318ZM13.2499 4.77019C13.2499 3.45933 12.2403 2.37318 10.9749 2.37318V2.77318C11.9981 2.77318 12.8499 3.65837 12.8499 4.77019H13.2499ZM13.2499 15.6469V4.77019H12.8499V15.6469H13.2499ZM3.07501 30.2879C3.07501 29.1759 3.92699 28.2909 4.94998 28.2909V27.8909C3.68487 27.8909 2.67501 28.9768 2.67501 30.2879H3.07501ZM4.94998 32.2849C3.927 32.2849 3.07501 31.3997 3.07501 30.2879H2.67501C2.67501 31.5988 3.68486 32.6849 4.94998 32.6849V32.2849ZM10.9749 32.2849H4.94998V32.6849H10.9749V32.2849ZM12.8499 30.2879C12.8499 31.3998 11.9981 32.2849 10.9749 32.2849V32.6849C12.2403 32.6849 13.2499 31.5988 13.2499 30.2879H12.8499ZM10.9749 28.2909C11.9982 28.2909 12.8499 29.1759 12.8499 30.2879H13.2499C13.2499 28.9768 12.2403 27.8909 10.9749 27.8909V28.2909ZM4.94998 28.2909H10.9749V27.8909H4.94998V28.2909ZM30.9252 30.8194C30.9252 31.6383 30.2984 32.2849 29.5522 32.2849V32.6849C30.5405 32.6849 31.3252 31.8374 31.3252 30.8194H30.9252ZM30.9252 28.8235V30.8194H31.3252V28.8235H30.9252ZM14.9252 29.0235H31.1252V28.6235H14.9252V29.0235ZM15.1252 30.2879V28.8235H14.7252V30.2879H15.1252ZM14.5067 32.586C14.8986 31.9169 15.1252 31.1296 15.1252 30.2879H14.7252C14.7252 31.0572 14.5182 31.7749 14.1615 32.3839L14.5067 32.586ZM29.5522 32.2849H14.3341V32.6849H29.5522V32.2849ZM31.3252 26.9412V9.99972H30.9252V26.9412H31.3252ZM14.9252 27.1412H31.1252V26.7412H14.9252V27.1412ZM14.7252 9.99972V26.9412H15.1252V9.99972H14.7252ZM31.1252 9.79972H14.9252V10.1997H31.1252V9.79972ZM31.3252 8.11737V7.42837H30.9252V8.11737H31.3252ZM31.3252 7.42837C31.3252 6.41035 30.5405 5.56284 29.5522 5.56284V5.96284C30.2984 5.96284 30.9252 6.60946 30.9252 7.42837H31.3252ZM29.5522 5.56284H14.9252V5.96284H29.5522V5.56284ZM14.7252 5.76284V8.11737H15.1252V5.76284H14.7252ZM14.9252 8.31737H31.1252V7.91737H14.9252V8.31737Z" fill="#90604C" mask="url(#path-1-outside-1_132_9722)"/>
</svg>
