<svg width="19" height="17" viewBox="0 0 19 17" fill="none" xmlns="http://www.w3.org/2000/svg">
<path d="M16.2755 3V3.05H16.3255C17.5388 3.05 18.5255 4.03671 18.5255 5.25V14.25C18.5255 15.4633 17.5388 16.45 16.3255 16.45H2.8255C1.61221 16.45 0.6255 15.4633 0.6255 14.25V2.25C0.6255 1.03671 1.61221 0.05 2.8255 0.05H14.0755C15.2888 0.05 16.2755 1.03671 16.2755 2.25V3ZM14.8255 3.05H14.8755V3V2.25C14.8755 1.80875 14.5168 1.45 14.0755 1.45H2.8255C2.38425 1.45 2.0255 1.80875 2.0255 2.25C2.0255 2.69125 2.38425 3.05 2.8255 3.05H14.8255ZM2.09219 4.32433L2.0255 4.30071V4.37146V14.25C2.0255 14.6912 2.38425 15.05 2.8255 15.05H16.3255C16.7668 15.05 17.1255 14.6912 17.1255 14.25V12.375V12.325H17.0755H12.9505C11.5307 12.325 10.3755 11.1695 10.3755 9.75C10.3755 8.33053 11.5307 7.175 12.9505 7.175H17.0755H17.1255V7.125V5.25C17.1255 4.80875 16.7668 4.45 16.3255 4.45H2.8255C2.56836 4.45 2.32168 4.4056 2.09219 4.32433ZM17.0755 10.925H17.1255V10.875V8.625V8.575H17.0755H15.3186H15.2394L15.2735 8.64651C15.4332 8.98189 15.5255 9.35506 15.5255 9.75C15.5255 10.1376 15.4372 10.5116 15.2752 10.8536L15.2414 10.925H15.3204H17.0755ZM13.7855 10.5798L13.7858 10.5795C14.003 10.3604 14.1255 10.0634 14.1255 9.75C14.1255 9.10221 13.5983 8.575 12.9505 8.575C12.3027 8.575 11.7755 9.10221 11.7755 9.75C11.7755 10.3978 12.3027 10.925 12.9505 10.925C13.2641 10.925 13.5611 10.8024 13.7855 10.5798Z" fill="#90604C" stroke="white" stroke-width="0.1"/>
</svg>
