<svg xmlns="http://www.w3.org/2000/svg">

   <!-- phone -->
	<symbol id="phone" viewBox="0 0 20 20">
      <g>
         <path fill-rule="evenodd" clip-rule="evenodd" d="M8.8614 6.33786C9.3795 5.63965 9.56529 4.9038 8.97932 4.25427C7.66437 2.41429 6.78003 1.27645 6.22533 0.728499C5.17077 -0.313234 3.436 -0.172323 2.52267 0.727609C2.03212 1.21097 1.86604 1.37696 1.36235 1.88857C-1.4433 4.69573 0.267729 10.63 4.81627 15.183C9.36378 19.735 15.2975 21.4469 18.109 18.6338C18.5738 18.1857 18.9673 17.792 19.2777 17.4639C20.1727 16.5179 20.3086 14.8597 19.2718 13.7824C18.7402 13.2301 17.6552 12.3884 15.7378 11.0169C15.1506 10.4918 14.4543 10.6056 13.8159 11.0244C13.5089 11.2259 13.2854 11.4296 12.8634 11.852L12.0972 12.6187C11.9963 12.7197 10.6259 12.0334 9.2956 10.7018C7.9646 9.36949 7.27878 7.99902 7.37923 7.89858L8.146 7.13138C8.27988 6.99738 8.34388 6.9325 8.42596 6.84623C8.59697 6.6665 8.73856 6.5034 8.8614 6.33786ZM13.5106 14.0329L14.277 13.2661C14.5092 13.0336 14.6598 12.8907 14.7822 12.7922C16.4618 13.9984 17.4346 14.7568 17.8319 15.1697C18.0705 15.4175 18.0334 15.8698 17.8261 16.089C17.5391 16.3923 17.1662 16.7654 16.7086 17.2068C14.8906 19.0256 10.1008 17.6436 6.23002 13.7691C2.35803 9.89328 0.97677 5.10275 2.78108 3.29745C3.28275 2.78794 3.44169 2.62908 3.92524 2.15262C4.10655 1.97397 4.60041 1.93385 4.82096 2.15173C5.24803 2.5736 6.04023 3.58795 7.2056 5.21129C7.14527 5.28619 7.06992 5.37083 6.97822 5.46721C6.91092 5.53794 6.85485 5.59478 6.73227 5.71748L5.96625 6.48392C4.6631 7.78696 5.77291 10.0047 7.88186 12.1157C9.98937 14.2253 12.2079 15.3363 13.5106 14.0329Z" />
      </g>
   </symbol>

   <!-- user -->
	<symbol id="user" viewBox="0 0 20 20">
      <g>
         <path fill-rule="evenodd" clip-rule="evenodd" d="M10 20C4.47715 20 0 15.5228 0 10C0 4.47715 4.47715 0 10 0C15.5228 0 20 4.47715 20 10C20 15.5228 15.5228 20 10 20ZM16.7268 14.6588C17.6442 13.3367 18.1818 11.7311 18.1818 10C18.1818 5.48131 14.5187 1.81818 9.99999 1.81818C5.48129 1.81818 1.81817 5.48131 1.81817 10C1.81817 11.7311 2.35579 13.3366 3.27317 14.6588C4.29631 13.3073 6.70053 12.7273 9.99997 12.7273C13.2994 12.7273 15.7037 13.3073 16.7268 14.6588ZM15.4224 16.1271C15.1563 15.1703 13.2449 14.5455 9.99997 14.5455C6.75509 14.5455 4.84363 15.1703 4.57754 16.127C6.02116 17.4056 7.91993 18.1818 9.99999 18.1818C12.08 18.1818 13.9788 17.4056 15.4224 16.1271ZM10 4.54545C7.79921 4.54545 6.36366 6.1416 6.36366 8.18182C6.36366 11.2976 7.96445 12.7273 10 12.7273C12.0165 12.7273 13.6364 11.3451 13.6364 8.36364C13.6364 6.29234 12.1947 4.54545 10 4.54545ZM8.18183 8.18182C8.18183 10.2448 8.92566 10.9091 10 10.9091C11.0707 10.9091 11.8182 10.2713 11.8182 8.36364C11.8182 7.22765 11.1052 6.36364 10 6.36364C8.84887 6.36364 8.18183 7.10529 8.18183 8.18182Z" />
      </g>
   </symbol>

   <!-- search -->
	<symbol id="search" viewBox="0 0 20 20">
      <g>
         <path fill-rule="evenodd" clip-rule="evenodd" d="M8.11896 16.2378C3.63502 16.2378 6.10352e-05 12.6028 6.10352e-05 8.1189C6.10352e-05 3.63495 3.63502 0 8.11896 0C12.6029 0 16.2379 3.63495 16.2379 8.1189C16.2379 9.9951 15.6014 11.7227 14.5327 13.0975L20 18.5648L18.5648 20L13.0975 14.5327C11.7227 15.6014 9.99514 16.2378 8.11896 16.2378ZM14.2081 8.1189C14.2081 11.4819 11.4819 14.2081 8.11896 14.2081C4.756 14.2081 2.02979 11.4819 2.02979 8.1189C2.02979 4.75594 4.756 2.02972 8.11896 2.02972C11.4819 2.02972 14.2081 4.75594 14.2081 8.1189Z" />
      </g>
   </symbol>

   <!-- shopping-cart -->
	<symbol id="shopping-cart" viewBox="0 0 21 20">
      <g>
         <path fill-rule="evenodd" clip-rule="evenodd" d="M4.07125 2.00254C3.89365 2.00216 3.72244 2.02226 3.55976 2.06048C3.33674 1.56893 3.04216 1.12794 2.70711 0.792893C2.13843 0.224221 1.24155 0 0 0V2C0.758448 2 1.1949 2.10911 1.29289 2.20711C1.67086 2.58508 2 3.35306 2 4L2.01005 4.14142L2.98992 11.0005C1.35036 11.0856 0.0801976 12.3588 0.00122858 13.9504L0 15C0.0968212 16.6439 1.36275 17.9085 2.94324 17.9984L3.17026 17.9987C3.58174 19.1646 4.69331 20 6 20C7.30622 20 8.41746 19.1652 8.82929 18H11.1707C11.5825 19.1652 12.6938 20 14 20C15.6569 20 17 18.6569 17 17C17 15.3431 15.6569 14 14 14C12.6938 14 11.5825 14.8348 11.1707 16H8.82929C8.41746 14.8348 7.30622 14 6 14C4.69378 14 3.58254 14.8348 3.17071 16H3C2.49001 15.9694 2.03254 15.5124 1.99821 14.9401L2 14C2.02697 13.4813 2.48131 13.027 3.04955 12.9988L5.02369 12.9993L5.038 13H15.1169L15.2645 12.9532C16.0227 12.7126 16.6296 12.1416 16.917 11.4025L17.0224 11.194L17.3647 10.5159C17.7188 9.81392 18.0729 9.11076 18.418 8.4238C19.2632 6.74107 19.7948 5.67166 19.9125 5.40906C20.5171 4.06045 19.2924 3.02246 18.0407 3.00036L4.07125 2.00254ZM14.7694 11H5.11287C5.04866 10.9821 4.99973 10.9278 4.99015 10.86L4.01025 4.00073L17.8934 4.99492C17.6505 5.49032 17.2089 6.37516 16.6308 7.52609L16.6163 7.55493C16.2863 8.21186 15.9326 8.91405 15.579 9.61507L15.2371 10.2923L15.1076 10.5488L15.0588 10.6622C15.0065 10.8078 14.9028 10.9274 14.7694 11ZM14 18C14.5523 18 15 17.5523 15 17C15 16.4477 14.5523 16 14 16C13.4477 16 13 16.4477 13 17C13 17.5523 13.4477 18 14 18ZM7 17C7 17.5523 6.55228 18 6 18C5.44772 18 5 17.5523 5 17C5 16.4477 5.44772 16 6 16C6.55228 16 7 16.4477 7 17Z" />
      </g>
   </symbol>

   <!-- home -->
	<symbol id="home" viewBox="0 0 22 20">
      <g>
         <path fill-rule="evenodd" clip-rule="evenodd" d="M4.88867 8L10.89 1.99867L16.8913 8H16.89V18H4.89001V8H4.88867ZM2.89001 9.99866L1.4132 11.4755L0 10.0623L9.47699 0.585289C10.2574 -0.195098 11.5226 -0.195098 12.303 0.585289L21.78 10.0623L20.3668 11.4755L18.89 9.99868V18C18.89 19.1046 17.9946 20 16.89 20H4.89001C3.78545 20 2.89001 19.1046 2.89001 18V9.99866Z" />
      </g>
   </symbol>

   <!-- catalog -->
	<symbol id="catalog" viewBox="0 0 20 18">
      <g>
         <path opacity="0.45" fill-rule="evenodd" clip-rule="evenodd" d="M0 2C0 3.10457 0.89543 4 2 4C3.10457 4 4 3.10457 4 2C4 0.895432 3.10457 0 2 0C0.89543 0 0 0.895432 0 2ZM6 1H20V3H6V1ZM20 8H6V10H20V8ZM6 17H20V15H6V17ZM0 16C0 17.1046 0.89543 18 2 18C3.10457 18 4 17.1046 4 16C4 14.8954 3.10457 14 2 14C0.89543 14 0 14.8954 0 16ZM2 11C0.89543 11 0 10.1046 0 9C0 7.89543 0.89543 7 2 7C3.10457 7 4 7.89543 4 9C4 10.1046 3.10457 11 2 11Z" />
      </g>
   </symbol>

   <!-- swiper-arrow -->
	<symbol id="swiper-arrow" viewBox="0 0 11 6">
      <g>
         <path fill-rule="evenodd" clip-rule="evenodd" d="M5.5 4.32329L0.893313 -3.50599e-08L-2.25623e-07 0.838357L5.5 6L11 0.838357L10.1067 -4.37789e-07L5.5 4.32329Z" />
      </g>
   </symbol>

   <!--  -->
	<symbol id="" viewBox="">
      <g>
         
      </g>
   </symbol>

   <!--  -->
	<symbol id="" viewBox="">
      <g>
         
      </g>
   </symbol>

   <!--  -->
	<symbol id="" viewBox="">
      <g>
         
      </g>
   </symbol>

</svg>